<svg xmlns="http://www.w3.org/2000/svg" version="1.1" xmlns:xlink="http://www.w3.org/1999/xlink" xmlns:svgjs="http://svgjs.dev/svgjs" width="1000" height="1000" viewBox="0 0 1000 1000"><rect width="1000" height="1000" fill="#ffffff"></rect><g transform="matrix(0.7,0,0,0.7,149.57575757575756,381.2876622552712)"><svg viewBox="0 0 396 134" data-background-color="#ffffff" preserveAspectRatio="xMidYMid meet" height="338" width="1000" xmlns="http://www.w3.org/2000/svg" xmlns:xlink="http://www.w3.org/1999/xlink"><g id="tight-bounds" transform="matrix(1,0,0,1,0.2400000000000091,0.23353025272044192)"><svg viewBox="0 0 395.52 133.53293949455912" height="133.53293949455912" width="395.52"><g><svg viewBox="0 0 635.3076560635784 214.48851839999998" height="133.53293949455912" width="395.52"><g transform="matrix(1,0,0,1,239.78765606357845,35.08757493713178)"><svg viewBox="0 0 395.52 144.31336852573642" height="144.31336852573642" width="395.52"><g id="textblocktransform"><svg viewBox="0 0 395.52 144.31336852573642" height="144.31336852573642" width="395.52" id="textblock"><g><svg viewBox="0 0 395.52 107.16522502744236" height="107.16522502744236" width="395.52"><g transform="matrix(1,0,0,1,0,0)"><svg width="395.52" viewBox="1.2 -35.4 133.43 36.16" height="107.16522502744236" data-palette-color="#233565"><path d="M1.2-24.51L1.2-24.51Q1.2-26.68 2.03-28.59 2.86-30.49 4.28-31.92 5.71-33.35 7.62-34.18 9.52-35.01 11.69-35.01L11.69-35.01 27.76-35.01 27.76-28 11.69-28Q10.96-28 10.33-27.73 9.69-27.47 9.22-26.99 8.74-26.51 8.47-25.88 8.2-25.24 8.2-24.51L8.2-24.51Q8.2-23.78 8.47-23.13 8.74-22.49 9.22-22.01 9.69-21.53 10.33-21.26 10.96-21 11.69-21L11.69-21 18.7-21Q20.87-21 22.79-20.18 24.71-19.36 26.14-17.93 27.56-16.5 28.38-14.59 29.2-12.67 29.2-10.5L29.2-10.5Q29.2-8.33 28.38-6.42 27.56-4.52 26.14-3.09 24.71-1.66 22.79-0.83 20.87 0 18.7 0L18.7 0 3.15 0 3.15-7.01 18.7-7.01Q19.43-7.01 20.07-7.28 20.7-7.54 21.18-8.02 21.66-8.5 21.92-9.13 22.19-9.77 22.19-10.5L22.19-10.5Q22.19-11.23 21.92-11.87 21.66-12.5 21.18-12.98 20.7-13.45 20.07-13.72 19.43-13.99 18.7-13.99L18.7-13.99 11.69-13.99Q9.52-13.99 7.62-14.82 5.71-15.65 4.28-17.08 2.86-18.51 2.03-20.42 1.2-22.34 1.2-24.51ZM40.79-35.01L40.79 0 33.79 0 33.79-35.01 40.79-35.01ZM75.14-17.36L75.14-3.54Q72.7-1.46 69.7-0.35 66.69 0.76 63.45 0.76L63.45 0.76Q60.96 0.76 58.65 0.11 56.34-0.54 54.34-1.72 52.34-2.91 50.68-4.55 49.02-6.2 47.85-8.22 46.67-10.23 46.03-12.55 45.38-14.87 45.38-17.36L45.38-17.36Q45.38-19.85 46.03-22.14 46.67-24.44 47.85-26.45 49.02-28.47 50.68-30.11 52.34-31.76 54.34-32.93 56.34-34.11 58.65-34.75 60.96-35.4 63.45-35.4L63.45-35.4Q66.69-35.4 69.7-34.29 72.7-33.18 75.14-31.1L75.14-31.1 71.48-25Q69.89-26.61 67.82-27.53 65.74-28.44 63.45-28.44L63.45-28.44Q61.15-28.44 59.14-27.56 57.12-26.68 55.61-25.18 54.1-23.68 53.22-21.67 52.34-19.65 52.34-17.36L52.34-17.36Q52.34-15.04 53.22-13.01 54.1-10.99 55.61-9.47 57.12-7.96 59.14-7.08 61.15-6.2 63.45-6.2L63.45-6.2Q64.77-6.2 66.01-6.52 67.26-6.84 68.38-7.4L68.38-7.4 68.38-17.36 75.14-17.36ZM104.53-7.01L104.53 0 80.53 0 80.53-35.01 104.53-35.01 104.53-28 87.54-28 87.54-21 99.04-21 99.04-13.99 87.54-13.99 87.54-7.01 104.53-7.01ZM124.14-28L124.14 0 117.15 0 117.15-28 106.63-28 106.63-35.01 134.63-35.01 134.63-28 124.14-28Z" opacity="1" transform="matrix(1,0,0,1,0,0)" fill="#000000" class="wordmark-text-0" data-fill-palette-color="primary" id="text-0"></path></svg></g></svg></g><g transform="matrix(1,0,0,1,0,132.46436269102085)"><svg viewBox="0 0 375.74399999999997 11.84900583471558" height="11.84900583471558" width="375.74399999999997"><g transform="matrix(1,0,0,1,0,0)"><svg width="375.74399999999997" viewBox="0.98 -37.99 1251 39.45" height="11.84900583471558" data-palette-color="#233565"><path d="M17.77 1.46L17.77 1.46Q14.89 1.34 12.6 0.96 10.3 0.59 8.17-0.26 6.03-1.1 4.58-2.38 3.13-3.66 2.16-5.66 1.2-7.67 0.98-10.3L0.98-10.3Q0.98-10.77 1.46-10.84L1.46-10.84Q1.61-10.79 1.95-10.79L1.95-10.79Q3.98-10.79 8.11-10.89 12.23-10.99 14.26-10.99L14.26-10.99Q14.77-10.99 15.06-10.66 15.36-10.33 15.54-9.85 15.72-9.38 15.98-8.9 16.24-8.42 16.86-8.09 17.48-7.76 18.46-7.76L18.46-7.76Q19.65-7.76 20.57-8.44 21.48-9.11 21.48-10.25L21.48-10.25Q21.48-11.01 20.7-11.65 19.92-12.28 18.64-12.68 17.36-13.09 16.2-13.37 15.04-13.65 13.82-13.85 12.6-14.06 12.4-14.11L12.4-14.11Q6.47-15.72 3.87-18.12 1.27-20.51 1.27-24.66L1.27-24.66Q1.27-27.59 2.34-29.92 3.42-32.25 5.15-33.73 6.88-35.21 9.25-36.19 11.62-37.18 14.04-37.59 16.46-37.99 19.04-37.99L19.04-37.99Q25.9-37.99 29.98-35.45L29.98-35.45Q31.47-33.96 32.17-33.19 32.86-32.42 33.51-31.4 34.16-30.37 34.41-29.38 34.67-28.39 34.77-26.95L34.77-26.95 33.89-26.07Q28.88-25.88 22.66-25.88L22.66-25.88Q21.88-25.88 21.4-26.05 20.92-26.22 20.76-26.49 20.61-26.76 20.45-27.05 20.29-27.34 20.15-27.61 20.02-27.88 19.59-28.05 19.17-28.22 18.46-28.22L18.46-28.22Q18.26-28.22 17.83-28.15 17.41-28.08 16.83-27.92 16.26-27.76 15.84-27.43 15.43-27.1 15.43-26.66L15.43-26.66Q15.43-26.12 15.98-25.68 16.53-25.24 17.14-25.05 17.75-24.85 18.65-24.62 19.56-24.39 19.78-24.32L19.78-24.32Q25.1-22.97 26.12-22.66L26.12-22.66Q31.47-20.97 33.69-18.24L33.69-18.24Q35.74-15.7 35.74-11.87L35.74-11.87Q35.74-9.55 35.14-7.64 34.55-5.74 33.57-4.42 32.59-3.1 31.13-2.08 29.66-1.05 28.16-0.44 26.66 0.17 24.76 0.59 22.85 1 21.25 1.18 19.65 1.37 17.77 1.46ZM36.62-33.69L49.53-33.69 53.37-21.63Q55.22-26.59 56.83-31.54L56.83-31.54Q56.88-31.74 57.13-32.28 57.37-32.81 57.42-33.15L57.42-33.15Q57.61-33.74 60.06-33.74L60.06-33.74Q60.23-33.74 60.53-33.72 60.84-33.69 61.03-33.69L61.03-33.69Q65.01-33.74 69.63-33.79L69.63-33.79Q70.21-33.72 70.46-32.59L70.46-32.59 59.37-12.52 59.76-10.89Q59.76-9.47 59.81-6.57 59.86-3.66 59.86-2.54L59.86-2.54 59.86-1.81Q59.76-1.46 59.48-1.25 59.2-1.03 58.7-0.96 58.2-0.9 57.82-0.89 57.44-0.88 56.75-0.9 56.05-0.93 55.81-0.93L55.81-0.93 46.48-0.93 45.7-1.95 45.7-12.16 40.06-24.19 37.45-27.86Q35.45-31.86 35.45-33.01L35.45-33.01Q35.45-33.69 36.62-33.69L36.62-33.69ZM90.67-24.12L90.67-24.12Q90.01-24.12 89.59-24.32 89.18-24.51 88.94-24.8 88.69-25.1 88.39-25.39 88.08-25.68 87.42-25.88 86.76-26.07 85.74-26.07L85.74-26.07Q85.42-26.07 84.97-26.01 84.52-25.95 83.98-25.68 83.44-25.42 83.44-25L83.44-25Q83.44-24.54 83.89-24.21 84.35-23.88 84.92-23.74 85.49-23.61 86.21-23.43 86.93-23.24 87.23-23.1L87.23-23.1 90.82-22.22Q92.4-21.78 93.67-21.29 94.94-20.8 96.37-19.96 97.8-19.12 98.75-18.09 99.7-17.07 100.34-15.52 100.97-13.96 100.97-12.11L100.97-12.11Q100.97-9.86 100.39-8.11L100.39-8.11 100.39-8.15Q99.87-6.59 98.95-5.36 98.02-4.13 96.75-3.31 95.48-2.49 94.18-1.94 92.89-1.39 91.19-1.06 89.5-0.73 88.17-0.57 86.84-0.42 85.1-0.29L85.1-0.29Q77.41-0.68 74.8-2.73L74.8-2.73 74.8-3.03Q72.58-4.69 71.52-6.64 70.45-8.59 70.26-11.04L70.26-11.04Q70.26-11.62 70.8-11.62L70.8-11.62Q70.94-11.62 71.24-11.6 71.53-11.57 71.67-11.57L71.67-11.57 74.16-11.57Q74.51-11.62 75.14-11.62L75.14-11.62 75.78-11.62Q75.97-11.62 76.12-11.57L76.12-11.57Q77.53-11.62 80.95-11.62L80.95-11.62 82.08-11.62Q82.56-11.62 82.83-11.33 83.1-11.04 83.26-10.61 83.42-10.18 83.63-9.75 83.83-9.33 84.37-9.03 84.91-8.74 85.79-8.74L85.79-8.74Q86.74-8.74 87.51-9.24 88.28-9.74 88.28-10.69L88.28-10.69Q88.28-11.13 87.86-11.52 87.45-11.91 86.62-12.23 85.79-12.55 85.14-12.74 84.49-12.94 83.39-13.21 82.29-13.48 81.98-13.57L81.98-13.57 80.51-13.57Q75.21-15.14 72.88-17.54 70.55-19.95 70.55-23.63L70.55-23.63Q70.55-26.07 71.47-28.03 72.38-29.98 73.88-31.23 75.39-32.47 77.41-33.31 79.44-34.16 81.54-34.51 83.64-34.86 85.88-34.86L85.88-34.86Q89.86-34.86 93.27-33.53 96.67-32.2 98.43-30.08L98.43-30.08Q99.07-29.44 99.46-28.47 99.85-27.49 99.96-26.92 100.07-26.34 100.24-25L100.24-25 99.56-24.02 95.41-24.02Q94.72-24.02 93.13-24.07 91.55-24.12 90.67-24.12ZM101.36-24.71L101.36-24.71 101.36-33.5 129.78-33.5Q130.17-33.42 130.27-33.19 130.36-32.96 130.36-32.52L130.36-32.52 130.36-24.71Q130.31-24.12 129.68-24.12L129.68-24.12 122.75-24.12 122.75-1.66Q122.75-1.64 122.72-1.54 122.7-1.44 122.7-1.42 122.7-1.39 122.67-1.32 122.65-1.25 122.62-1.22 122.6-1.2 122.58-1.14 122.55-1.07 122.51-1.06 122.48-1.05 122.42-1.01 122.36-0.98 122.29-0.95 122.23-0.93 122.15-0.92 122.06-0.9 121.97-0.88L121.97-0.88 120.4-0.88Q117.28-0.88 117.28-1.07L117.28-1.07Q117.08-1.07 116.69-1.05 116.3-1.03 116.11-1.03L116.11-1.03 114.15-1.03Q113.59-1.03 112.55-1 111.52-0.98 110.93-0.98L110.93-0.98 109.56-0.98 108.59-1.66 108.59-6.93Q108.61-8.35 108.79-12.99 108.98-17.63 108.98-20.31L108.98-20.31 108.98-20.95Q108.98-21.14 109-21.56 109.03-21.97 109.03-22.17L109.03-22.17Q109.03-22.39 109-23.06 108.98-23.73 108.98-23.93L108.98-23.93 102.87-23.93Q102.34-23.93 101.85-24.11 101.36-24.29 101.36-24.71ZM132.22-1.81L132.22-31.54Q132.22-33.01 132.34-33.25L132.34-33.25Q132.56-33.59 133.05-33.59L133.05-33.59 133.63-33.59Q134.02-33.59 134.17-33.54L134.17-33.54 135.44-33.54Q137.91-33.54 142.9-33.67 147.89-33.79 150.38-33.79L150.38-33.79 156.87-33.79Q157.51-33.72 157.51-33.15L157.51-33.15 157.51-25Q157.49-24.85 157.42-24.74 157.36-24.63 157.33-24.6 157.29-24.56 157.09-24.43 156.9-24.29 156.83-24.22L156.83-24.22 145.5-24.22 145.5-21.19 146.57-21.19Q147.99-21.19 150.89-21.29 153.8-21.39 155.36-21.39L155.36-21.39Q156.04-21.39 156.29-21.12 156.53-20.85 156.53-20.36L156.53-20.36Q156.53-20.24 156.48-19.95 156.44-19.65 156.44-19.53L156.44-19.53 156.44-18.6Q156.44-18.51 156.46-18.2 156.48-17.9 156.48-17.68L156.48-17.68 156.48-16.99Q156.48-16.46 156.53-15.92 156.58-15.38 156.58-14.99L156.58-14.99 156.58-14.36Q156.46-14.06 156.39-13.96 156.31-13.87 156.14-13.87L156.14-13.87 156.14-13.92Q155.24-13.92 153.03-13.79 150.82-13.67 149.5-13.67L149.5-13.67 145.6-13.67 145.6-10.55Q145.79-10.55 146.18-10.52 146.57-10.5 146.77-10.5L146.77-10.5Q147.87-10.5 150.01-10.57 152.16-10.64 153.12-10.64L153.12-10.64 156.24-10.64Q157.51-10.64 157.85-10.35L157.85-10.35Q157.97-10.21 158.05-10.06L158.05-10.06 158.05-2.25Q158.05-1.73 157.85-1.46 157.66-1.2 157.12-1.17L157.12-1.17 132.95-1.17 132.22-1.81ZM176.16-33.5L178.65-33.5Q178.82-33.54 179.2-33.58 179.58-33.62 179.68-33.64L179.68-33.64 182.58-18.77 186.39-33.69 203.55-33.69Q204.24-33.69 204.24-30.81L204.24-30.81 204.24-2.05Q204.19-1.66 204.02-1.42 203.84-1.17 203.52-1.09 203.19-1 203-0.99 202.82-0.98 202.38-0.98L202.38-0.98Q200.84-0.98 197.7-0.93 194.57-0.88 193.01-0.88L193.01-0.88Q191.78-1.64 191.78-6.49L191.78-6.49Q191.78-7.71 191.83-9.68 191.88-11.65 191.88-12.6L191.88-12.6 191.88-14.75Q191.88-14.92 191.86-15.3 191.83-15.67 191.83-15.87L191.83-15.87Q191.83-16.7 191.93-18.55L191.93-18.55 191.93-16.7Q191.59-15.26 190.61-12.3 189.64-9.35 189.29-7.91L189.29-7.91 187.83-1.66Q187.44-0.98 185.39-0.98L185.39-0.98Q184.39-0.98 182.79-1.03 181.19-1.07 180.36-1.07L180.36-1.07Q180.11-1.07 179.53-1.05 178.94-1.03 178.8-1.03L178.8-1.03Q178.01-1.03 177.67-1.22 177.33-1.42 177.18-2L177.18-2Q174.89-12.18 174.01-16.41L174.01-16.41 173.13-20.61Q172.79-13.5 172.79-5.57L172.79-5.57 172.79-1.27 161.27-1.27Q161.27-1.42 161.34-1.9 161.41-2.39 161.41-2.44L161.41-2.44Q161.22-7.13 161.22-14.01L161.22-14.01Q161.22-16.09 161.19-19.54 161.17-23 161.17-24.32L161.17-24.32 161.17-32.96Q161.17-33.28 161.27-33.44 161.36-33.59 161.76-33.89L161.76-33.89 164-33.89Q165.22-33.89 165.76-33.94L165.76-33.94Q168.22-33.94 171.75-33.72 175.28-33.5 176.16-33.5L176.16-33.5ZM191.93-18.75L191.93-18.7 191.93-18.75ZM208.82-1.81L208.82-31.54Q208.82-33.01 208.94-33.25L208.94-33.25Q209.16-33.59 209.65-33.59L209.65-33.59 210.24-33.59Q210.63-33.59 210.78-33.54L210.78-33.54 212.05-33.54Q214.51-33.54 219.5-33.67 224.5-33.79 226.99-33.79L226.99-33.79 233.48-33.79Q234.12-33.72 234.12-33.15L234.12-33.15 234.12-25Q234.09-24.85 234.03-24.74 233.97-24.63 233.93-24.6 233.9-24.56 233.7-24.43 233.51-24.29 233.43-24.22L233.43-24.22 222.1-24.22 222.1-21.19 223.18-21.19Q224.59-21.19 227.5-21.29 230.4-21.39 231.97-21.39L231.97-21.39Q232.65-21.39 232.9-21.12 233.14-20.85 233.14-20.36L233.14-20.36Q233.14-20.24 233.09-19.95 233.04-19.65 233.04-19.53L233.04-19.53 233.04-18.6Q233.04-18.51 233.07-18.2 233.09-17.9 233.09-17.68L233.09-17.68 233.09-16.99Q233.09-16.46 233.14-15.92 233.19-15.38 233.19-14.99L233.19-14.99 233.19-14.36Q233.07-14.06 232.99-13.96 232.92-13.87 232.75-13.87L232.75-13.87 232.75-13.92Q231.85-13.92 229.64-13.79 227.43-13.67 226.11-13.67L226.11-13.67 222.2-13.67 222.2-10.55Q222.4-10.55 222.79-10.52 223.18-10.5 223.37-10.5L223.37-10.5Q224.47-10.5 226.62-10.57 228.77-10.64 229.72-10.64L229.72-10.64 232.85-10.64Q234.12-10.64 234.46-10.35L234.46-10.35Q234.58-10.21 234.65-10.06L234.65-10.06 234.65-2.25Q234.65-1.73 234.46-1.46 234.26-1.2 233.73-1.17L233.73-1.17 209.56-1.17 208.82-1.81ZM259.7-33.89L265.95-33.89Q269.29-33.89 271.96-33.45 274.64-33.01 277.09-31.88 279.55-30.76 281.18-28.96 282.82-27.15 283.78-24.27 284.75-21.39 284.75-17.58L284.75-17.58Q284.75-14.79 284.09-12.39 283.43-9.99 282.28-8.25 281.13-6.52 279.66-5.16 278.18-3.81 276.44-2.95 274.71-2.1 272.98-1.64 271.24-1.17 269.51-1.07L269.51-1.07 252.76-1.07 252.76-33.5Q252.84-33.5 253.03-33.47 253.23-33.45 253.3-33.45L253.3-33.45Q254.35-33.45 256.49-33.67 258.62-33.89 259.7-33.89L259.7-33.89ZM265.07-8.69L266.24-8.69Q267.48-8.69 268.44-9.09 269.39-9.5 269.96-10.25 270.54-11.01 270.92-11.84 271.29-12.67 271.46-13.79 271.64-14.92 271.7-15.76 271.76-16.6 271.76-17.68L271.76-17.68 271.76-19.43Q271.73-19.6 271.61-21.09 271.49-22.58 271.07-23.63L271.07-23.63Q270.68-24.39 270.21-24.94 269.73-25.49 269.27-25.79 268.8-26.1 268.18-26.26 267.56-26.42 267.05-26.46 266.53-26.51 265.8-26.51L265.8-26.51 265.8-25.98 265.07-25.98 265.07-8.69ZM291.09-36.82L292.7-36.82Q292.92-36.82 294.03-36.87 295.14-36.91 296.12-36.91 297.1-36.91 298.18-36.88 299.27-36.84 299.92-36.62 300.56-36.4 300.56-36.04L300.56-36.04Q300.59-34.69 300.67-29.7 300.76-24.71 300.76-22.02L300.76-22.02Q300.76-21.04 299.35-20.73 297.95-20.41 295.29-20.41L295.29-20.41 291.09-20.41Q290.55-20.75 290.16-21.29L290.16-21.29 290.16-35.16Q290.16-35.69 290.43-36.22 290.7-36.74 291.09-36.82L291.09-36.82ZM323.17 0.63L307.4 0.63Q307.49-6.47 307.74-9.77L307.74-9.77Q307.74-20.02 308.03-30.57L308.03-30.57Q307.93-32.62 307.93-33.59L307.93-33.59 307.93-34.33Q307.84-35.4 307.84-36.08L307.84-36.08Q307.84-36.55 308.28-36.91L308.28-36.91Q312.28-36.62 320.48-36.62L320.48-36.62Q322.44-36.62 323.17-36.72L323.17-36.72 323.17 0.63ZM352.17-33.59L360.52-33.59Q360.81-33.5 360.97-32.75 361.13-32.01 361.15-30.88 361.18-29.76 361.15-28.74 361.13-27.71 361.09-26.64 361.06-25.56 361.06-25.29L361.06-25.29Q361.01-24.32 361.01-22.56L361.01-22.56 361.01-19.97Q361.01-18.26 361.06-15.28 361.11-12.3 361.11-10.89L361.11-10.89 361.11-2Q361.01-1.17 359.74-1.17L359.74-1.17 346.07-1.17Q345.63-1.27 344.94-3.22L344.94-3.22Q344.48-4.52 343.39-7.47 342.31-10.42 341.53-12.66 340.74-14.89 340.11-16.99L340.11-16.99 340.11-17.14 340.11-16.99Q340.04-15.38 339.96-12.19 339.89-9.01 339.82-7.42L339.82-7.42 339.82-2.44Q339.82-1.71 339.65-1.43 339.47-1.15 338.74-0.98L338.74-0.98 328.68-0.98 327.61-2.05Q327.73-6.1 327.8-14.75 327.88-23.39 328-27.54L328-27.54 328-32.81Q328.24-33.69 328.59-33.69L328.59-33.69 328.59-33.59Q330.25-33.59 333.8-33.69 337.35-33.79 339.13-33.79L339.13-33.79 343.23-33.79Q343.26-33.79 343.31-33.76L343.31-33.76Q343.75-33.59 343.8-33.37L343.8-33.37 343.82-33.2Q344.7-30.83 345.6-28.3 346.51-25.76 347.75-22.16 349-18.55 349.48-17.19L349.48-17.19 349.48-20.8Q349.97-29.39 349.97-33.01L349.97-33.01Q349.97-33.4 350.51-33.5 351.05-33.59 352.17-33.59L352.17-33.59ZM366.52-0.98L365.89-2.05 365.89-33.01Q365.89-33.4 366.13-33.58 366.38-33.76 366.58-33.78 366.79-33.79 367.35-33.79L367.35-33.79 390.4-33.79Q390.6-33.79 390.72-33.73 390.84-33.67 390.91-33.61 390.99-33.54 391.01-33.41 391.03-33.28 391.05-33.2 391.06-33.13 391.05-32.98 391.03-32.84 391.03-32.81L391.03-32.81 391.03-24.51 379.61-24.51 379.61-23.63Q379.61-23.34 379.71-22.07L379.71-22.07 382-22.07Q382.34-22.09 383.23-22.23 384.13-22.36 384.64-22.36L384.64-22.36 386.64-22.36Q387.32-22.36 387.67-22.41L387.67-22.41Q388.67-22.41 389.5-22.17 390.33-21.92 390.4-21.63L390.4-21.63 390.4-20.21Q390.4-19.75 390.35-18.79 390.3-17.82 390.3-17.33L390.3-17.33 390.3-15.14Q390.35-14.94 390.35-14.45L390.35-14.45 390.35-13.48Q390.25-12.7 388.84-12.7L388.84-12.7 387.27-12.7Q386.44-12.7 384.89-12.65 383.34-12.6 382.49-12.6L382.49-12.6 379.76-12.6 379.76-0.98 366.52-0.98ZM391.72-16.21L391.72-17.68 391.67-18.21Q392.13-22.19 392.55-23.75L392.55-23.75Q393.5-27.42 395.96-29.88L395.96-29.88 396.55-30.47Q397.72-31.84 400.11-32.81L400.11-32.81 401.04-32.81Q403.43-33.81 408.9-34.67L408.9-34.67Q410.27-34.67 411.77-34.46 413.27-34.25 415.1-33.78 416.94-33.3 418.63-32.26 420.33-31.23 421.45-29.79L421.45-29.79 421.45-29.1Q425.46-24.1 425.46-17.87L425.46-17.87Q425.46-10.86 422.23-6.45L422.23-6.45 421.26-5.22Q420.13-3.83 418.46-2.83 416.79-1.83 414.91-1.31 413.03-0.78 411.31-0.56 409.59-0.34 407.88-0.34L407.88-0.34Q405.36-0.34 403.08-0.94 400.8-1.54 398.81-2.81 396.82-4.08 395.3-5.93 393.79-7.79 392.85-10.41 391.91-13.04 391.72-16.21L391.72-16.21ZM405.14-18.55L405.14-17.48Q405.14-8.89 408.41-8.89L408.41-8.89Q409.32-8.89 409.99-9.23 410.66-9.57 411.08-10.28 411.49-10.99 411.76-11.72 412.03-12.45 412.14-13.55 412.25-14.65 412.28-15.48 412.32-16.31 412.32-17.48L412.32-17.48 412.32-18.36Q412.32-19.63 412.17-20.8 412.03-21.97 411.67-23.16 411.32-24.34 410.59-25.06 409.86-25.78 408.81-25.78L408.81-25.78Q405.14-25.78 405.14-18.55L405.14-18.55ZM428.97-0.98L428.97-33.59 433.51-33.59Q435.61-33.59 440.22-33.69 444.84-33.79 447.13-33.79L447.13-33.79Q449.11-33.79 450.83-33.57 452.55-33.35 454.23-32.76 455.9-32.18 457.08-31.27 458.27-30.37 459-28.89 459.73-27.42 459.73-25.49L459.73-25.49Q459.73-22.83 458.49-20.95 457.24-19.07 454.65-17.77L454.65-17.77Q455.68-17.33 456.43-16.63 457.19-15.92 457.59-15.41 458-14.89 458.38-13.68 458.75-12.48 458.83-12.1 458.9-11.72 459.14-10.23L459.14-10.23Q459.22-9.89 459.24-9.72L459.24-9.72Q459.34-8.74 460.07-6.14 460.8-3.54 460.8-2.15L460.8-2.15Q460.8-1.27 460.27-1.27L460.27-1.27Q458.8-1.27 455.84-1.25 452.87-1.22 451.43-1.22L451.43-1.22Q450.84-1.27 449.67-1.27L449.67-1.27 448.01-1.27Q447.52-1.42 447.06-2.78 446.6-4.15 446.4-5.86L446.4-5.86 445.86-10.21Q445.72-10.74 445.63-10.97 445.55-11.21 445.33-11.54 445.11-11.87 444.73-11.99 444.35-12.11 443.76-12.11L443.76-12.11 442.64-12.11 442.64-2.34Q442.64-2.27 442.64-2.11 442.64-1.95 442.64-1.89 442.64-1.83 442.64-1.71 442.64-1.59 442.62-1.53 442.59-1.46 442.57-1.37 442.54-1.27 442.51-1.23 442.47-1.2 442.41-1.14 442.35-1.07 442.26-1.05 442.18-1.03 442.07-1 441.96-0.98 441.81-0.98L441.81-0.98 428.97-0.98ZM442.79-20.7L442.79-20.7Q442.84-20.65 442.93-20.5 443.03-20.34 443.13-20.24 443.23-20.14 443.32-20.12L443.32-20.12Q444.06-20.12 444.79-20.28 445.52-20.43 446.29-20.8 447.06-21.17 447.54-21.92 448.01-22.68 448.01-23.73L448.01-23.73Q448.01-26.27 443.13-26.27L443.13-26.27Q442.64-26.15 442.64-25.88L442.64-25.88 442.64-24.95Q442.64-24.24 442.71-22.83 442.79-21.41 442.79-20.7ZM478.48-33.5L480.97-33.5Q481.14-33.54 481.52-33.58 481.9-33.62 481.99-33.64L481.99-33.64 484.9-18.77 488.71-33.69 505.87-33.69Q506.55-33.69 506.55-30.81L506.55-30.81 506.55-2.05Q506.51-1.66 506.33-1.42 506.16-1.17 505.83-1.09 505.5-1 505.32-0.99 505.14-0.98 504.7-0.98L504.7-0.98Q503.16-0.98 500.02-0.93 496.89-0.88 495.32-0.88L495.32-0.88Q494.1-1.64 494.1-6.49L494.1-6.49Q494.1-7.71 494.15-9.68 494.2-11.65 494.2-12.6L494.2-12.6 494.2-14.75Q494.2-14.92 494.18-15.3 494.15-15.67 494.15-15.87L494.15-15.87Q494.15-16.7 494.25-18.55L494.25-18.55 494.25-16.7Q493.91-15.26 492.93-12.3 491.95-9.35 491.61-7.91L491.61-7.91 490.15-1.66Q489.76-0.98 487.71-0.98L487.71-0.98Q486.71-0.98 485.11-1.03 483.51-1.07 482.68-1.07L482.68-1.07Q482.43-1.07 481.85-1.05 481.26-1.03 481.11-1.03L481.11-1.03Q480.33-1.03 479.99-1.22 479.65-1.42 479.5-2L479.5-2Q477.21-12.18 476.33-16.41L476.33-16.41 475.45-20.61Q475.11-13.5 475.11-5.57L475.11-5.57 475.11-1.27 463.59-1.27Q463.59-1.42 463.66-1.9 463.73-2.39 463.73-2.44L463.73-2.44Q463.54-7.13 463.54-14.01L463.54-14.01Q463.54-16.09 463.51-19.54 463.49-23 463.49-24.32L463.49-24.32 463.49-32.96Q463.49-33.28 463.59-33.44 463.68-33.59 464.07-33.89L464.07-33.89 466.32-33.89Q467.54-33.89 468.08-33.94L468.08-33.94Q470.54-33.94 474.07-33.72 477.6-33.5 478.48-33.5L478.48-33.5ZM494.25-18.75L494.25-18.7 494.25-18.75ZM530.09-6.05L522.57-6.05Q522.4-5.49 522.24-4.58 522.08-3.66 521.94-3.14 521.81-2.61 521.49-2.04 521.18-1.46 520.53-1.2 519.88-0.93 518.86-0.93L518.86-0.93 508.31-0.93 508.31-1.76Q509.6-5.64 512.08-13.67 514.56-21.7 515.93-25.83L515.93-25.83 515.93-25.78Q516.76-28.15 518.37-33.2L518.37-33.2Q518.39-33.25 518.44-33.33L518.44-33.33Q518.66-33.69 518.86-33.89L518.86-33.89 532.04-33.79Q535.41-33.79 535.75-33.2L535.75-33.2 535.75-32.57Q535.8-32.35 536.29-31.45L536.29-31.45Q538.66-24.19 539.75-20.9L539.75-20.9 539.75-20.61Q539.85-19.9 540.19-18.99 540.54-18.09 541.01-17.05 541.49-16.02 541.68-15.43L541.68-15.43 542.66-11.91Q543.51-9.08 545.17-4.35L545.17-4.35 545.17-4.39 545.17-3.91Q545.25-3.56 545.54-2.98 545.83-2.39 545.91-2.15L545.91-2.15Q545.91-1.46 545.63-1.27 545.35-1.07 544.54-1.07L544.54-1.07 533.21-1.07Q532.8-1.12 532.67-1.15 532.55-1.17 532.3-1.25 532.04-1.32 531.93-1.44 531.82-1.56 531.8-1.76L531.8-1.76 530.87-5.47Q530.77-5.93 530.67-5.99 530.58-6.05 530.09-6.05L530.09-6.05ZM523.74-14.65L523.74-14.75 523.74-14.65ZM529.11-17.68L529.11-17.68Q528.96-18.36 528.68-19.89 528.4-21.41 528.13-22.55 527.87-23.68 527.55-24.66L527.55-24.66 527.55-25.83Q527.35-26.34 526.86-26.56L526.86-26.56 526.86-26.51Q526.28-26.39 525.69-23.24L525.69-23.24 525.69-22.07Q525.64-21.9 525.47-21.75 525.3-21.61 525.3-21.58L525.3-21.58Q524.5-18.02 523.98-15.82L523.98-15.82Q523.98-15.58 523.86-14.97 523.74-14.36 523.74-14.26L523.74-14.26 529.79-14.26Q529.79-14.89 529.35-16.55L529.35-16.55 529.35-17.09Q529.33-17.16 529.22-17.37 529.11-17.58 529.11-17.68ZM544.98-24.71L544.98-24.71 544.98-33.5 573.39-33.5Q573.79-33.42 573.88-33.19 573.98-32.96 573.98-32.52L573.98-32.52 573.98-24.71Q573.93-24.12 573.3-24.12L573.3-24.12 566.36-24.12 566.36-1.66Q566.36-1.64 566.34-1.54 566.31-1.44 566.31-1.42 566.31-1.39 566.29-1.32 566.27-1.25 566.24-1.22 566.22-1.2 566.19-1.14 566.17-1.07 566.13-1.06 566.1-1.05 566.03-1.01 565.97-0.98 565.91-0.95 565.85-0.93 565.77-0.92 565.68-0.9 565.58-0.88L565.58-0.88 564.02-0.88Q560.89-0.88 560.89-1.07L560.89-1.07Q560.7-1.07 560.31-1.05 559.92-1.03 559.72-1.03L559.72-1.03 557.77-1.03Q557.21-1.03 556.17-1 555.13-0.98 554.55-0.98L554.55-0.98 553.18-0.98 552.2-1.66 552.2-6.93Q552.23-8.35 552.41-12.99 552.59-17.63 552.59-20.31L552.59-20.31 552.59-20.95Q552.59-21.14 552.62-21.56 552.64-21.97 552.64-22.17L552.64-22.17Q552.64-22.39 552.62-23.06 552.59-23.73 552.59-23.93L552.59-23.93 546.49-23.93Q545.95-23.93 545.47-24.11 544.98-24.29 544.98-24.71ZM588.92-0.93L575.54-0.93 575.54-33.01Q575.57-33.2 575.93-33.36 576.3-33.52 576.37-33.59L576.37-33.59 589.51-33.59 589.51-1.81Q589.38-1.29 589.27-1.11 589.16-0.93 588.92-0.93L588.92-0.93ZM592.43-16.21L592.43-17.68 592.38-18.21Q592.85-22.19 593.26-23.75L593.26-23.75Q594.22-27.42 596.68-29.88L596.68-29.88 597.27-30.47Q598.44-31.84 600.83-32.81L600.83-32.81 601.76-32.81Q604.15-33.81 609.62-34.67L609.62-34.67Q610.99-34.67 612.49-34.46 613.99-34.25 615.82-33.78 617.65-33.3 619.35-32.26 621.05-31.23 622.17-29.79L622.17-29.79 622.17-29.1Q626.17-24.1 626.17-17.87L626.17-17.87Q626.17-10.86 622.95-6.45L622.95-6.45 621.97-5.22Q620.85-3.83 619.18-2.83 617.51-1.83 615.63-1.31 613.75-0.78 612.03-0.56 610.3-0.34 608.6-0.34L608.6-0.34Q606.08-0.34 603.8-0.94 601.51-1.54 599.53-2.81 597.54-4.08 596.02-5.93 594.51-7.79 593.57-10.41 592.63-13.04 592.43-16.21L592.43-16.21ZM605.86-18.55L605.86-17.48Q605.86-8.89 609.13-8.89L609.13-8.89Q610.04-8.89 610.71-9.23 611.38-9.57 611.79-10.28 612.21-10.99 612.48-11.72 612.75-12.45 612.86-13.55 612.97-14.65 613-15.48 613.04-16.31 613.04-17.48L613.04-17.48 613.04-18.36Q613.04-19.63 612.89-20.8 612.75-21.97 612.39-23.16 612.04-24.34 611.31-25.06 610.57-25.78 609.52-25.78L609.52-25.78Q605.86-25.78 605.86-18.55L605.86-18.55ZM653.66-33.59L662.01-33.59Q662.3-33.5 662.46-32.75 662.62-32.01 662.65-30.88 662.67-29.76 662.65-28.74 662.62-27.71 662.58-26.64 662.55-25.56 662.55-25.29L662.55-25.29Q662.5-24.32 662.5-22.56L662.5-22.56 662.5-19.97Q662.5-18.26 662.55-15.28 662.6-12.3 662.6-10.89L662.6-10.89 662.6-2Q662.5-1.17 661.23-1.17L661.23-1.17 647.56-1.17Q647.12-1.27 646.43-3.22L646.43-3.22Q645.97-4.52 644.88-7.47 643.8-10.42 643.02-12.66 642.24-14.89 641.6-16.99L641.6-16.99 641.6-17.14 641.6-16.99Q641.53-15.38 641.45-12.19 641.38-9.01 641.31-7.42L641.31-7.42 641.31-2.44Q641.31-1.71 641.14-1.43 640.97-1.15 640.23-0.98L640.23-0.98 630.17-0.98 629.1-2.05Q629.22-6.1 629.3-14.75 629.37-23.39 629.49-27.54L629.49-27.54 629.49-32.81Q629.74-33.69 630.08-33.69L630.08-33.69 630.08-33.59Q631.74-33.59 635.29-33.69 638.84-33.79 640.62-33.79L640.62-33.79 644.73-33.79Q644.75-33.79 644.8-33.76L644.8-33.76Q645.24-33.59 645.29-33.37L645.29-33.37 645.31-33.2Q646.19-30.83 647.09-28.3 648-25.76 649.24-22.16 650.49-18.55 650.98-17.19L650.98-17.19 650.98-20.8Q651.46-29.39 651.46-33.01L651.46-33.01Q651.46-33.4 652-33.5 652.54-33.59 653.66-33.59L653.66-33.59ZM681.29-18.26L681.29-18.26Q681.29-21.63 682.05-24.44 682.81-27.25 684.06-29.2 685.32-31.15 687.09-32.67 688.86-34.18 690.74-35.1 692.62-36.01 694.78-36.6 696.94-37.18 698.82-37.39 700.7-37.6 702.63-37.6L702.63-37.6Q704.05-37.6 705.4-37.48 706.76-37.35 708.45-37.05 710.15-36.74 711.63-36.11 713.1-35.47 714.46-34.56 715.81-33.64 716.82-32.19 717.82-30.74 718.26-28.91L718.26-28.91Q718.38-28.2 718.74-24.9L718.74-24.9Q718.65-24.17 717.18-24.17L717.18-24.17Q715.08-24.17 711.08-24.27 707.07-24.37 705.07-24.37L705.07-24.37Q704.78-24.46 704.61-24.76 704.44-25.05 704.38-25.39 704.32-25.73 704.18-26.12 704.05-26.51 703.84-26.82 703.63-27.12 703.11-27.33 702.58-27.54 701.8-27.54L701.8-27.54Q700.78-27.54 699.97-27.19 699.16-26.83 698.65-26.32 698.14-25.81 697.77-24.93 697.41-24.05 697.22-23.33 697.04-22.61 696.94-21.5 696.84-20.39 696.83-19.75 696.82-19.12 696.82-18.07L696.82-18.07Q696.82-17.75 696.84-17.29 696.87-16.82 696.87-16.65L696.87-16.65 696.87-15.92Q696.87-15.14 696.89-14.62 696.92-14.11 697.03-13.31 697.14-12.5 697.33-11.95 697.53-11.4 697.91-10.78 698.28-10.16 698.83-9.78 699.38-9.4 700.21-9.14 701.04-8.89 702.09-8.89L702.09-8.89Q704.8-8.89 706.54-9.42L706.54-9.42 706.54-12.4 705.46-12.4 705.46-12.35 703.7-12.35Q703.51-12.35 703.01-12.33 702.51-12.3 702.19-12.3L702.19-12.3 701.31-13.28 701.31-20.02Q701.31-20.65 702.19-21.39L702.19-21.39 703.95-21.39Q705.78-21.39 708.39-21.34 711-21.29 712.4-21.29L712.4-21.29 714.35-21.29Q715.77-21.29 716.56-21.26 717.35-21.24 718.33-21.03 719.31-20.83 719.62-20.41L719.62-20.41Q719.62-17.21 719.48-11.08 719.33-4.96 719.33-2.2L719.33-2.2Q719.33-2.12 719.35-1.97 719.38-1.81 719.38-1.71L719.38-1.71 719.38-1.17Q718.55-0.2 713.96 0.54 709.37 1.27 706.24 1.27L706.24 1.27 705.61 1.27Q704.93 1.27 703.58 1.37 702.24 1.46 701.56 1.46L701.56 1.46Q691.72 1.46 686.51-3.8 681.29-9.06 681.29-18.26ZM723.33-1.81L723.33-31.54Q723.33-33.01 723.45-33.25L723.45-33.25Q723.67-33.59 724.16-33.59L724.16-33.59 724.75-33.59Q725.14-33.59 725.28-33.54L725.28-33.54 726.55-33.54Q729.02-33.54 734.01-33.67 739-33.79 741.5-33.79L741.5-33.79 747.99-33.79Q748.62-33.72 748.62-33.15L748.62-33.15 748.62-25Q748.6-24.85 748.54-24.74 748.48-24.63 748.44-24.6 748.4-24.56 748.21-24.43 748.01-24.29 747.94-24.22L747.94-24.22 736.61-24.22 736.61-21.19 737.69-21.19Q739.1-21.19 742.01-21.29 744.91-21.39 746.48-21.39L746.48-21.39Q747.16-21.39 747.4-21.12 747.65-20.85 747.65-20.36L747.65-20.36Q747.65-20.24 747.6-19.95 747.55-19.65 747.55-19.53L747.55-19.53 747.55-18.6Q747.55-18.51 747.57-18.2 747.6-17.9 747.6-17.68L747.6-17.68 747.6-16.99Q747.6-16.46 747.65-15.92 747.7-15.38 747.7-14.99L747.7-14.99 747.7-14.36Q747.57-14.06 747.5-13.96 747.43-13.87 747.26-13.87L747.26-13.87 747.26-13.92Q746.35-13.92 744.14-13.79 741.93-13.67 740.62-13.67L740.62-13.67 736.71-13.67 736.71-10.55Q736.91-10.55 737.3-10.52 737.69-10.5 737.88-10.5L737.88-10.5Q738.98-10.5 741.13-10.57 743.28-10.64 744.23-10.64L744.23-10.64 747.35-10.64Q748.62-10.64 748.97-10.35L748.97-10.35Q749.09-10.21 749.16-10.06L749.16-10.06 749.16-2.25Q749.16-1.73 748.97-1.46 748.77-1.2 748.23-1.17L748.23-1.17 724.06-1.17 723.33-1.81ZM770.84-24.12L770.84-24.12Q770.18-24.12 769.76-24.32 769.35-24.51 769.11-24.8 768.86-25.1 768.56-25.39 768.25-25.68 767.59-25.88 766.93-26.07 765.91-26.07L765.91-26.07Q765.59-26.07 765.14-26.01 764.69-25.95 764.15-25.68 763.61-25.42 763.61-25L763.61-25Q763.61-24.54 764.06-24.21 764.52-23.88 765.09-23.74 765.66-23.61 766.38-23.43 767.1-23.24 767.4-23.1L767.4-23.1 770.98-22.22Q772.57-21.78 773.84-21.29 775.11-20.8 776.54-19.96 777.97-19.12 778.92-18.09 779.87-17.07 780.51-15.52 781.14-13.96 781.14-12.11L781.14-12.11Q781.14-9.86 780.56-8.11L780.56-8.11 780.56-8.15Q780.04-6.59 779.11-5.36 778.19-4.13 776.92-3.31 775.65-2.49 774.35-1.94 773.06-1.39 771.36-1.06 769.67-0.73 768.34-0.57 767.01-0.42 765.27-0.29L765.27-0.29Q757.58-0.68 754.97-2.73L754.97-2.73 754.97-3.03Q752.75-4.69 751.69-6.64 750.62-8.59 750.43-11.04L750.43-11.04Q750.43-11.62 750.97-11.62L750.97-11.62Q751.11-11.62 751.4-11.6 751.7-11.57 751.84-11.57L751.84-11.57 754.33-11.57Q754.68-11.62 755.31-11.62L755.31-11.62 755.95-11.62Q756.14-11.62 756.29-11.57L756.29-11.57Q757.7-11.62 761.12-11.62L761.12-11.62 762.24-11.62Q762.73-11.62 763-11.33 763.27-11.04 763.43-10.61 763.59-10.18 763.79-9.75 764-9.33 764.54-9.03 765.08-8.74 765.96-8.74L765.96-8.74Q766.91-8.74 767.68-9.24 768.45-9.74 768.45-10.69L768.45-10.69Q768.45-11.13 768.03-11.52 767.62-11.91 766.79-12.23 765.96-12.55 765.31-12.74 764.66-12.94 763.56-13.21 762.46-13.48 762.15-13.57L762.15-13.57 760.68-13.57Q755.38-15.14 753.05-17.54 750.72-19.95 750.72-23.63L750.72-23.63Q750.72-26.07 751.64-28.03 752.55-29.98 754.05-31.23 755.56-32.47 757.58-33.31 759.61-34.16 761.71-34.51 763.81-34.86 766.05-34.86L766.05-34.86Q770.03-34.86 773.44-33.53 776.84-32.2 778.6-30.08L778.6-30.08Q779.24-29.44 779.63-28.47 780.02-27.49 780.13-26.92 780.24-26.34 780.41-25L780.41-25 779.73-24.02 775.57-24.02Q774.89-24.02 773.3-24.07 771.72-24.12 770.84-24.12ZM781.53-24.71L781.53-24.71 781.53-33.5 809.95-33.5Q810.34-33.42 810.44-33.19 810.53-32.96 810.53-32.52L810.53-32.52 810.53-24.71Q810.48-24.12 809.85-24.12L809.85-24.12 802.92-24.12 802.92-1.66Q802.92-1.64 802.89-1.54 802.87-1.44 802.87-1.42 802.87-1.39 802.84-1.32 802.82-1.25 802.79-1.22 802.77-1.2 802.75-1.14 802.72-1.07 802.68-1.06 802.65-1.05 802.59-1.01 802.53-0.98 802.46-0.95 802.4-0.93 802.32-0.92 802.23-0.9 802.13-0.88L802.13-0.88 800.57-0.88Q797.45-0.88 797.45-1.07L797.45-1.07Q797.25-1.07 796.86-1.05 796.47-1.03 796.28-1.03L796.28-1.03 794.32-1.03Q793.76-1.03 792.72-1 791.69-0.98 791.1-0.98L791.1-0.98 789.73-0.98 788.76-1.66 788.76-6.93Q788.78-8.35 788.96-12.99 789.15-17.63 789.15-20.31L789.15-20.31 789.15-20.95Q789.15-21.14 789.17-21.56 789.2-21.97 789.2-22.17L789.2-22.17Q789.2-22.39 789.17-23.06 789.15-23.73 789.15-23.93L789.15-23.93 783.04-23.93Q782.51-23.93 782.02-24.11 781.53-24.29 781.53-24.71ZM825.47-0.93L812.09-0.93 812.09-33.01Q812.12-33.2 812.48-33.36 812.85-33.52 812.92-33.59L812.92-33.59 826.06-33.59 826.06-1.81Q825.94-1.29 825.83-1.11 825.72-0.93 825.47-0.93L825.47-0.93ZM828.99-16.21L828.99-17.68 828.94-18.21Q829.4-22.19 829.82-23.75L829.82-23.75Q830.77-27.42 833.23-29.88L833.23-29.88 833.82-30.47Q834.99-31.84 837.38-32.81L837.38-32.81 838.31-32.81Q840.7-33.81 846.17-34.67L846.17-34.67Q847.54-34.67 849.04-34.46 850.54-34.25 852.37-33.78 854.2-33.3 855.9-32.26 857.6-31.23 858.72-29.79L858.72-29.79 858.72-29.1Q862.73-24.1 862.73-17.87L862.73-17.87Q862.73-10.86 859.5-6.45L859.5-6.45 858.53-5.22Q857.4-3.83 855.73-2.83 854.06-1.83 852.18-1.31 850.3-0.78 848.58-0.56 846.86-0.34 845.15-0.34L845.15-0.34Q842.63-0.34 840.35-0.94 838.07-1.54 836.08-2.81 834.09-4.08 832.57-5.93 831.06-7.79 830.12-10.41 829.18-13.04 828.99-16.21L828.99-16.21ZM842.41-18.55L842.41-17.48Q842.41-8.89 845.68-8.89L845.68-8.89Q846.59-8.89 847.26-9.23 847.93-9.57 848.35-10.28 848.76-10.99 849.03-11.72 849.3-12.45 849.41-13.55 849.52-14.65 849.55-15.48 849.59-16.31 849.59-17.48L849.59-17.48 849.59-18.36Q849.59-19.63 849.44-20.8 849.3-21.97 848.94-23.16 848.59-24.34 847.86-25.06 847.12-25.78 846.08-25.78L846.08-25.78Q842.41-25.78 842.41-18.55L842.41-18.55ZM890.21-33.59L898.56-33.59Q898.86-33.5 899.01-32.75 899.17-32.01 899.2-30.88 899.22-29.76 899.2-28.74 899.17-27.71 899.14-26.64 899.1-25.56 899.1-25.29L899.1-25.29Q899.05-24.32 899.05-22.56L899.05-22.56 899.05-19.97Q899.05-18.26 899.1-15.28 899.15-12.3 899.15-10.89L899.15-10.89 899.15-2Q899.05-1.17 897.78-1.17L897.78-1.17 884.11-1.17Q883.67-1.27 882.99-3.22L882.99-3.22Q882.52-4.52 881.44-7.47 880.35-10.42 879.57-12.66 878.79-14.89 878.15-16.99L878.15-16.99 878.15-17.14 878.15-16.99Q878.08-15.38 878.01-12.19 877.93-9.01 877.86-7.42L877.86-7.42 877.86-2.44Q877.86-1.71 877.69-1.43 877.52-1.15 876.79-0.98L876.79-0.98 866.73-0.98 865.65-2.05Q865.77-6.1 865.85-14.75 865.92-23.39 866.04-27.54L866.04-27.54 866.04-32.81Q866.29-33.69 866.63-33.69L866.63-33.69 866.63-33.59Q868.29-33.59 871.84-33.69 875.39-33.79 877.18-33.79L877.18-33.79 881.28-33.79Q881.3-33.79 881.35-33.76L881.35-33.76Q881.79-33.59 881.84-33.37L881.84-33.37 881.86-33.2Q882.74-30.83 883.65-28.3 884.55-25.76 885.79-22.16 887.04-18.55 887.53-17.19L887.53-17.19 887.53-20.8Q888.02-29.39 888.02-33.01L888.02-33.01Q888.02-33.4 888.55-33.5 889.09-33.59 890.21-33.59L890.21-33.59ZM916.43-29.25L916.43-29.25Q916.43-29.69 916.48-30.55 916.53-31.42 916.53-31.74L916.53-31.74Q916.53-31.86 916.48-32.62 916.43-33.37 916.43-33.94L916.43-33.94Q916.43-36.52 916.92-36.52L916.92-36.52Q917.11-36.52 917.26-36.47L917.26-36.47Q922.36-36.47 932.38-36.6 942.41-36.72 947.39-36.72L947.39-36.72Q948.63-36.72 948.96-36.5 949.29-36.28 949.29-35.64L949.29-35.64 949.29-34.96Q949.29-33.69 949.31-31.21 949.34-28.74 949.34-27.44L949.34-27.44Q949.34-26.17 948.66-26.17L948.66-26.17Q947.29-26.17 944.58-26.22 941.87-26.27 940.5-26.27L940.5-26.27 940.5-0.1Q940.33 0.63 939.67 0.68L939.67 0.68Q938.82 0.68 937.18 0.66 935.55 0.63 934.69 0.63L934.69 0.63Q934.64 0.63 934.59 0.68L934.59 0.68Q933.52 0.68 931.58 0.66 929.64 0.63 928.68 0.63L928.68 0.63 927.22 0.63Q926.73 0.68 925.8 0.68L925.8 0.68 924.83-0.49Q924.83-4.2 925.07-11.52 925.32-18.85 925.32-22.56L925.32-22.56Q925.32-22.73 925.3-23.12 925.29-23.51 925.29-23.75 925.29-24 925.25-24.37 925.22-24.73 925.13-24.96 925.05-25.2 924.92-25.43 924.8-25.66 924.6-25.77 924.39-25.88 924.09-25.88L924.09-25.88 917.11-25.88Q916.43-26.07 916.43-29.25ZM950.97-0.98L950.97-33.59 955.51-33.59Q957.61-33.59 962.23-33.69 966.84-33.79 969.14-33.79L969.14-33.79Q971.11-33.79 972.84-33.57 974.56-33.35 976.23-32.76 977.9-32.18 979.09-31.27 980.27-30.37 981-28.89 981.73-27.42 981.73-25.49L981.73-25.49Q981.73-22.83 980.49-20.95 979.24-19.07 976.66-17.77L976.66-17.77Q977.68-17.33 978.44-16.63 979.19-15.92 979.6-15.41 980-14.89 980.38-13.68 980.76-12.48 980.83-12.1 980.9-11.72 981.15-10.23L981.15-10.23Q981.22-9.89 981.25-9.72L981.25-9.72Q981.34-8.74 982.08-6.14 982.81-3.54 982.81-2.15L982.81-2.15Q982.81-1.27 982.27-1.27L982.27-1.27Q980.81-1.27 977.84-1.25 974.87-1.22 973.43-1.22L973.43-1.22Q972.85-1.27 971.68-1.27L971.68-1.27 970.02-1.27Q969.53-1.42 969.06-2.78 968.6-4.15 968.4-5.86L968.4-5.86 967.87-10.21Q967.72-10.74 967.63-10.97 967.55-11.21 967.33-11.54 967.11-11.87 966.73-11.99 966.35-12.11 965.77-12.11L965.77-12.11 964.64-12.11 964.64-2.34Q964.64-2.27 964.64-2.11 964.64-1.95 964.64-1.89 964.64-1.83 964.64-1.71 964.64-1.59 964.62-1.53 964.6-1.46 964.57-1.37 964.55-1.27 964.51-1.23 964.47-1.2 964.41-1.14 964.35-1.07 964.27-1.05 964.18-1.03 964.07-1 963.96-0.98 963.81-0.98L963.81-0.98 950.97-0.98ZM964.79-20.7L964.79-20.7Q964.84-20.65 964.94-20.5 965.03-20.34 965.13-20.24 965.23-20.14 965.33-20.12L965.33-20.12Q966.06-20.12 966.79-20.28 967.53-20.43 968.29-20.8 969.06-21.17 969.54-21.92 970.02-22.68 970.02-23.73L970.02-23.73Q970.02-26.27 965.13-26.27L965.13-26.27Q964.64-26.15 964.64-25.88L964.64-25.88 964.64-24.95Q964.64-24.24 964.72-22.83 964.79-21.41 964.79-20.7ZM1003.95-6.05L996.43-6.05Q996.26-5.49 996.1-4.58 995.94-3.66 995.81-3.14 995.67-2.61 995.35-2.04 995.04-1.46 994.39-1.2 993.74-0.93 992.72-0.93L992.72-0.93 982.17-0.93 982.17-1.76Q983.46-5.64 985.94-13.67 988.42-21.7 989.79-25.83L989.79-25.83 989.79-25.78Q990.62-28.15 992.23-33.2L992.23-33.2Q992.25-33.25 992.3-33.33L992.3-33.33Q992.52-33.69 992.72-33.89L992.72-33.89 1005.9-33.79Q1009.27-33.79 1009.61-33.2L1009.61-33.2 1009.61-32.57Q1009.66-32.35 1010.15-31.45L1010.15-31.45Q1012.52-24.19 1013.62-20.9L1013.62-20.9 1013.62-20.61Q1013.71-19.9 1014.06-18.99 1014.4-18.09 1014.87-17.05 1015.35-16.02 1015.54-15.43L1015.54-15.43 1016.52-11.91Q1017.38-9.08 1019.04-4.35L1019.04-4.35 1019.04-4.39 1019.04-3.91Q1019.11-3.56 1019.4-2.98 1019.7-2.39 1019.77-2.15L1019.77-2.15Q1019.77-1.46 1019.49-1.27 1019.21-1.07 1018.4-1.07L1018.4-1.07 1007.07-1.07Q1006.66-1.12 1006.54-1.15 1006.41-1.17 1006.16-1.25 1005.9-1.32 1005.79-1.44 1005.68-1.56 1005.66-1.76L1005.66-1.76 1004.73-5.47Q1004.63-5.93 1004.53-5.99 1004.44-6.05 1003.95-6.05L1003.95-6.05ZM997.6-14.65L997.6-14.75 997.6-14.65ZM1002.97-17.68L1002.97-17.68Q1002.83-18.36 1002.54-19.89 1002.26-21.41 1002-22.55 1001.73-23.68 1001.41-24.66L1001.41-24.66 1001.41-25.83Q1001.21-26.34 1000.73-26.56L1000.73-26.56 1000.73-26.51Q1000.14-26.39 999.55-23.24L999.55-23.24 999.55-22.07Q999.5-21.9 999.33-21.75 999.16-21.61 999.16-21.58L999.16-21.58Q998.36-18.02 997.84-15.82L997.84-15.82Q997.84-15.58 997.72-14.97 997.6-14.36 997.6-14.26L997.6-14.26 1003.66-14.26Q1003.66-14.89 1003.22-16.55L1003.22-16.55 1003.22-17.09Q1003.19-17.16 1003.08-17.37 1002.97-17.58 1002.97-17.68ZM1045.35-33.59L1053.7-33.59Q1053.99-33.5 1054.15-32.75 1054.31-32.01 1054.34-30.88 1054.36-29.76 1054.34-28.74 1054.31-27.71 1054.28-26.64 1054.24-25.56 1054.24-25.29L1054.24-25.29Q1054.19-24.32 1054.19-22.56L1054.19-22.56 1054.19-19.97Q1054.19-18.26 1054.24-15.28 1054.29-12.3 1054.29-10.89L1054.29-10.89 1054.29-2Q1054.19-1.17 1052.92-1.17L1052.92-1.17 1039.25-1.17Q1038.81-1.27 1038.13-3.22L1038.13-3.22Q1037.66-4.52 1036.58-7.47 1035.49-10.42 1034.71-12.66 1033.93-14.89 1033.29-16.99L1033.29-16.99 1033.29-17.14 1033.29-16.99Q1033.22-15.38 1033.15-12.19 1033.07-9.01 1033-7.42L1033-7.42 1033-2.44Q1033-1.71 1032.83-1.43 1032.66-1.15 1031.92-0.98L1031.92-0.98 1021.87-0.98 1020.79-2.05Q1020.91-6.1 1020.99-14.75 1021.06-23.39 1021.18-27.54L1021.18-27.54 1021.18-32.81Q1021.43-33.69 1021.77-33.69L1021.77-33.69 1021.77-33.59Q1023.43-33.59 1026.98-33.69 1030.53-33.79 1032.31-33.79L1032.31-33.79 1036.42-33.79Q1036.44-33.79 1036.49-33.76L1036.49-33.76Q1036.93-33.59 1036.98-33.37L1036.98-33.37 1037-33.2Q1037.88-30.83 1038.78-28.3 1039.69-25.76 1040.93-22.16 1042.18-18.55 1042.67-17.19L1042.67-17.19 1042.67-20.8Q1043.15-29.39 1043.15-33.01L1043.15-33.01Q1043.15-33.4 1043.69-33.5 1044.23-33.59 1045.35-33.59L1045.35-33.59ZM1078.02-24.12L1078.02-24.12Q1077.36-24.12 1076.94-24.32 1076.53-24.51 1076.28-24.8 1076.04-25.1 1075.73-25.39 1075.43-25.68 1074.77-25.88 1074.11-26.07 1073.08-26.07L1073.08-26.07Q1072.77-26.07 1072.31-26.01 1071.86-25.95 1071.33-25.68 1070.79-25.42 1070.79-25L1070.79-25Q1070.79-24.54 1071.24-24.21 1071.69-23.88 1072.27-23.74 1072.84-23.61 1073.56-23.43 1074.28-23.24 1074.57-23.1L1074.57-23.1 1078.16-22.22Q1079.75-21.78 1081.02-21.29 1082.29-20.8 1083.72-19.96 1085.14-19.12 1086.1-18.09 1087.05-17.07 1087.68-15.52 1088.32-13.96 1088.32-12.11L1088.32-12.11Q1088.32-9.86 1087.73-8.11L1087.73-8.11 1087.73-8.15Q1087.22-6.59 1086.29-5.36 1085.36-4.13 1084.09-3.31 1082.83-2.49 1081.53-1.94 1080.24-1.39 1078.54-1.06 1076.84-0.73 1075.51-0.57 1074.18-0.42 1072.45-0.29L1072.45-0.29Q1064.76-0.68 1062.15-2.73L1062.15-2.73 1062.15-3.03Q1059.92-4.69 1058.86-6.64 1057.8-8.59 1057.61-11.04L1057.61-11.04Q1057.61-11.62 1058.14-11.62L1058.14-11.62Q1058.29-11.62 1058.58-11.6 1058.87-11.57 1059.02-11.57L1059.02-11.57 1061.51-11.57Q1061.85-11.62 1062.49-11.62L1062.49-11.62 1063.12-11.62Q1063.32-11.62 1063.46-11.57L1063.46-11.57Q1064.88-11.62 1068.3-11.62L1068.3-11.62 1069.42-11.62Q1069.91-11.62 1070.18-11.33 1070.45-11.04 1070.61-10.61 1070.76-10.18 1070.97-9.75 1071.18-9.33 1071.72-9.03 1072.25-8.74 1073.13-8.74L1073.13-8.74Q1074.08-8.74 1074.85-9.24 1075.62-9.74 1075.62-10.69L1075.62-10.69Q1075.62-11.13 1075.21-11.52 1074.79-11.91 1073.96-12.23 1073.13-12.55 1072.49-12.74 1071.84-12.94 1070.74-13.21 1069.64-13.48 1069.32-13.57L1069.32-13.57 1067.86-13.57Q1062.56-15.14 1060.23-17.54 1057.9-19.95 1057.9-23.63L1057.9-23.63Q1057.9-26.07 1058.81-28.03 1059.73-29.98 1061.23-31.23 1062.73-32.47 1064.76-33.31 1066.79-34.16 1068.88-34.51 1070.98-34.86 1073.23-34.86L1073.23-34.86Q1077.21-34.86 1080.62-33.53 1084.02-32.2 1085.78-30.08L1085.78-30.08Q1086.41-29.44 1086.8-28.47 1087.2-27.49 1087.31-26.92 1087.41-26.34 1087.59-25L1087.59-25 1086.9-24.02 1082.75-24.02Q1082.07-24.02 1080.48-24.07 1078.89-24.12 1078.02-24.12ZM1103.26-0.98L1091.54-0.98 1091.03-17.24Q1091.03-18.92 1091.07-21.04 1091.12-23.17 1091.2-24.88 1091.27-26.59 1091.33-28.76 1091.39-30.93 1091.39-32.71L1091.39-32.71Q1091.39-33.2 1091.72-33.34 1092.05-33.47 1092.55-33.42 1093.05-33.37 1093.69-33.5L1093.69-33.5 1111.17-33.5Q1112.66-33.5 1114.15-33.12 1115.64-32.74 1117.06-31.9 1118.49-31.05 1119.58-29.85 1120.66-28.64 1121.34-26.83 1122.01-25.02 1122.01-22.85L1122.01-22.85Q1122.01-19.97 1120.79-17.74 1119.57-15.5 1117.12-13.53L1117.12-13.53Q1114.12-11.96 1109.9-11.72L1109.9-11.72 1109.12-11.72Q1108.14-11.52 1107.16-11.52L1107.16-11.52 1105.21-11.52Q1105.06-11.52 1104.97-11.47L1104.97-11.47Q1104.97-5.08 1105.16-1.81L1105.16-1.81Q1105.04-1.32 1104.64-1.15 1104.23-0.98 1103.26-0.98L1103.26-0.98ZM1103.75-19.63L1103.75-19.63 1103.75-19.19Q1103.77-19.17 1104.08-19.03 1104.38-18.9 1104.38-18.85L1104.38-18.85 1104.38-18.8Q1104.33-18.8 1104.33-18.9L1104.33-18.9Q1104.38-18.85 1104.62-18.85L1104.62-18.85Q1106.8-18.85 1108.3-19.82 1109.8-20.8 1109.8-22.85L1109.8-22.85Q1109.8-23.78 1109.48-24.44 1109.17-25.1 1108.71-25.45 1108.26-25.81 1107.49-25.99 1106.72-26.17 1106.09-26.22 1105.45-26.27 1104.48-26.27L1104.48-26.27Q1104.45-26.25 1104.28-26.1 1104.11-25.95 1104.04-25.88L1104.04-25.88 1104.04-23.34Q1103.75-21 1103.75-19.63ZM1122.83-16.21L1122.83-17.68 1122.79-18.21Q1123.25-22.19 1123.66-23.75L1123.66-23.75Q1124.62-27.42 1127.08-29.88L1127.08-29.88 1127.67-30.47Q1128.84-31.84 1131.23-32.81L1131.23-32.81 1132.16-32.81Q1134.55-33.81 1140.02-34.67L1140.02-34.67Q1141.39-34.67 1142.89-34.46 1144.39-34.25 1146.22-33.78 1148.05-33.3 1149.75-32.26 1151.45-31.23 1152.57-29.79L1152.57-29.79 1152.57-29.1Q1156.58-24.1 1156.58-17.87L1156.58-17.87Q1156.58-10.86 1153.35-6.45L1153.35-6.45 1152.38-5.22Q1151.25-3.83 1149.58-2.83 1147.91-1.83 1146.03-1.31 1144.15-0.78 1142.43-0.56 1140.71-0.34 1139-0.34L1139-0.34Q1136.48-0.34 1134.2-0.94 1131.92-1.54 1129.93-2.81 1127.94-4.08 1126.42-5.93 1124.91-7.79 1123.97-10.41 1123.03-13.04 1122.83-16.21L1122.83-16.21ZM1136.26-18.55L1136.26-17.48Q1136.26-8.89 1139.53-8.89L1139.53-8.89Q1140.44-8.89 1141.11-9.23 1141.78-9.57 1142.2-10.28 1142.61-10.99 1142.88-11.72 1143.15-12.45 1143.26-13.55 1143.37-14.65 1143.4-15.48 1143.44-16.31 1143.44-17.48L1143.44-17.48 1143.44-18.36Q1143.44-19.63 1143.29-20.8 1143.15-21.97 1142.79-23.16 1142.44-24.34 1141.71-25.06 1140.97-25.78 1139.92-25.78L1139.92-25.78Q1136.26-25.78 1136.26-18.55L1136.26-18.55ZM1160.09-0.98L1160.09-33.59 1164.63-33.59Q1166.73-33.59 1171.34-33.69 1175.96-33.79 1178.25-33.79L1178.25-33.79Q1180.23-33.79 1181.95-33.57 1183.67-33.35 1185.34-32.76 1187.02-32.18 1188.2-31.27 1189.39-30.37 1190.12-28.89 1190.85-27.42 1190.85-25.49L1190.85-25.49Q1190.85-22.83 1189.6-20.95 1188.36-19.07 1185.77-17.77L1185.77-17.77Q1186.8-17.33 1187.55-16.63 1188.31-15.92 1188.71-15.41 1189.12-14.89 1189.49-13.68 1189.87-12.48 1189.95-12.1 1190.02-11.72 1190.26-10.23L1190.26-10.23Q1190.34-9.89 1190.36-9.72L1190.36-9.72Q1190.46-8.74 1191.19-6.14 1191.92-3.54 1191.92-2.15L1191.92-2.15Q1191.92-1.27 1191.39-1.27L1191.39-1.27Q1189.92-1.27 1186.96-1.25 1183.99-1.22 1182.55-1.22L1182.55-1.22Q1181.96-1.27 1180.79-1.27L1180.79-1.27 1179.13-1.27Q1178.64-1.42 1178.18-2.78 1177.72-4.15 1177.52-5.86L1177.52-5.86 1176.98-10.21Q1176.84-10.74 1176.75-10.97 1176.67-11.21 1176.45-11.54 1176.23-11.87 1175.85-11.99 1175.47-12.11 1174.88-12.11L1174.88-12.11 1173.76-12.11 1173.76-2.34Q1173.76-2.27 1173.76-2.11 1173.76-1.95 1173.76-1.89 1173.76-1.83 1173.76-1.71 1173.76-1.59 1173.74-1.53 1173.71-1.46 1173.69-1.37 1173.66-1.27 1173.63-1.23 1173.59-1.2 1173.53-1.14 1173.47-1.07 1173.38-1.05 1173.3-1.03 1173.19-1 1173.08-0.98 1172.93-0.98L1172.93-0.98 1160.09-0.98ZM1173.91-20.7L1173.91-20.7Q1173.96-20.65 1174.05-20.5 1174.15-20.34 1174.25-20.24 1174.35-20.14 1174.44-20.12L1174.44-20.12Q1175.18-20.12 1175.91-20.28 1176.64-20.43 1177.41-20.8 1178.18-21.17 1178.66-21.92 1179.13-22.68 1179.13-23.73L1179.13-23.73Q1179.13-26.27 1174.25-26.27L1174.25-26.27Q1173.76-26.15 1173.76-25.88L1173.76-25.88 1173.76-24.95Q1173.76-24.24 1173.83-22.83 1173.91-21.41 1173.91-20.7ZM1191.78-24.71L1191.78-24.71 1191.78-33.5 1220.19-33.5Q1220.58-33.42 1220.68-33.19 1220.78-32.96 1220.78-32.52L1220.78-32.52 1220.78-24.71Q1220.73-24.12 1220.1-24.12L1220.1-24.12 1213.16-24.12 1213.16-1.66Q1213.16-1.64 1213.14-1.54 1213.11-1.44 1213.11-1.42 1213.11-1.39 1213.09-1.32 1213.06-1.25 1213.04-1.22 1213.02-1.2 1212.99-1.14 1212.97-1.07 1212.93-1.06 1212.89-1.05 1212.83-1.01 1212.77-0.98 1212.71-0.95 1212.65-0.93 1212.56-0.92 1212.48-0.9 1212.38-0.88L1212.38-0.88 1210.82-0.88Q1207.69-0.88 1207.69-1.07L1207.69-1.07Q1207.5-1.07 1207.11-1.05 1206.72-1.03 1206.52-1.03L1206.52-1.03 1204.57-1.03Q1204.01-1.03 1202.97-1 1201.93-0.98 1201.35-0.98L1201.35-0.98 1199.98-0.98 1199-1.66 1199-6.93Q1199.03-8.35 1199.21-12.99 1199.39-17.63 1199.39-20.31L1199.39-20.31 1199.39-20.95Q1199.39-21.14 1199.42-21.56 1199.44-21.97 1199.44-22.17L1199.44-22.17Q1199.44-22.39 1199.42-23.06 1199.39-23.73 1199.39-23.93L1199.39-23.93 1193.29-23.93Q1192.75-23.93 1192.26-24.11 1191.78-24.29 1191.78-24.71ZM1241.67-24.12L1241.67-24.12Q1241.02-24.12 1240.6-24.32 1240.19-24.51 1239.94-24.8 1239.7-25.1 1239.39-25.39 1239.09-25.68 1238.43-25.88 1237.77-26.07 1236.74-26.07L1236.74-26.07Q1236.43-26.07 1235.97-26.01 1235.52-25.95 1234.99-25.68 1234.45-25.42 1234.45-25L1234.45-25Q1234.45-24.54 1234.9-24.21 1235.35-23.88 1235.93-23.74 1236.5-23.61 1237.22-23.43 1237.94-23.24 1238.23-23.1L1238.23-23.1 1241.82-22.22Q1243.41-21.78 1244.68-21.29 1245.95-20.8 1247.38-19.96 1248.8-19.12 1249.76-18.09 1250.71-17.07 1251.34-15.52 1251.98-13.96 1251.98-12.11L1251.98-12.11Q1251.98-9.86 1251.39-8.11L1251.39-8.11 1251.39-8.15Q1250.88-6.59 1249.95-5.36 1249.02-4.13 1247.75-3.31 1246.48-2.49 1245.19-1.94 1243.9-1.39 1242.2-1.06 1240.5-0.73 1239.17-0.57 1237.84-0.42 1236.11-0.29L1236.11-0.29Q1228.42-0.68 1225.81-2.73L1225.81-2.73 1225.81-3.03Q1223.58-4.69 1222.52-6.64 1221.46-8.59 1221.26-11.04L1221.26-11.04Q1221.26-11.62 1221.8-11.62L1221.8-11.62Q1221.95-11.62 1222.24-11.6 1222.53-11.57 1222.68-11.57L1222.68-11.57 1225.17-11.57Q1225.51-11.62 1226.15-11.62L1226.15-11.62 1226.78-11.62Q1226.98-11.62 1227.12-11.57L1227.12-11.57Q1228.54-11.62 1231.96-11.62L1231.96-11.62 1233.08-11.62Q1233.57-11.62 1233.84-11.33 1234.11-11.04 1234.27-10.61 1234.42-10.18 1234.63-9.75 1234.84-9.33 1235.38-9.03 1235.91-8.74 1236.79-8.74L1236.79-8.74Q1237.74-8.74 1238.51-9.24 1239.28-9.74 1239.28-10.69L1239.28-10.69Q1239.28-11.13 1238.87-11.52 1238.45-11.91 1237.62-12.23 1236.79-12.55 1236.15-12.74 1235.5-12.94 1234.4-13.21 1233.3-13.48 1232.98-13.57L1232.98-13.57 1231.52-13.57Q1226.22-15.14 1223.89-17.54 1221.56-19.95 1221.56-23.63L1221.56-23.63Q1221.56-26.07 1222.47-28.03 1223.39-29.98 1224.89-31.23 1226.39-32.47 1228.42-33.31 1230.44-34.16 1232.54-34.51 1234.64-34.86 1236.89-34.86L1236.89-34.86Q1240.87-34.86 1244.28-33.53 1247.68-32.2 1249.44-30.08L1249.44-30.08Q1250.07-29.44 1250.46-28.47 1250.85-27.49 1250.96-26.92 1251.07-26.34 1251.25-25L1251.25-25 1250.56-24.02 1246.41-24.02Q1245.73-24.02 1244.14-24.07 1242.55-24.12 1241.67-24.12Z" opacity="1" transform="matrix(1,0,0,1,0,0)" fill="#000000" class="slogan-text-1" data-fill-palette-color="secondary" id="text-1"></path></svg></g></svg></g></svg></g></svg></g><g><svg viewBox="0 0 214.48851839999998 214.48851839999998" height="214.48851839999998" width="214.48851839999998"><g><svg></svg></g><g id="icon-0"><svg viewBox="0 0 214.48851839999998 214.48851839999998" height="214.48851839999998" width="214.48851839999998"><g><rect width="195.02567136" height="195.02567136" x="9.731423519999993" y="9.731423519999993" fill="#000000" data-fill-palette-color="accent"></rect><rect width="195.02567136" height="195.02567136" x="19.462847039999993" y="-5.329070518200751e-15" fill="#000000" opacity="0.5" data-fill-palette-color="accent"></rect></g><g transform="matrix(1,0,0,1,27.80406719999999,40.65352879225631)"><svg viewBox="0 0 158.880384 133.18146081548736" height="133.18146081548736" width="158.880384"><g><svg xmlns="http://www.w3.org/2000/svg" xmlns:xlink="http://www.w3.org/1999/xlink" version="1.1" x="0" y="0" viewBox="0.099 15.258 99.901 83.742" enable-background="new 0 0 100 100" xml:space="preserve" height="133.18146081548736" width="158.880384" class="icon-z$-0" data-fill-palette-color="background" id="z$-0"><g fill="#ffffff" data-fill-palette-color="background"><path d="M93.473 19.808l-0.121-2.229 1.252-0.06C97.301 17.374 99 17.294 100 17.266v-2.008c0 0-87.968 3.084-87.968 18.785 0 15.699 33.588 33.737 33.433 42.737C45.249 89.027 11.313 95 0.099 99h44.515c1.339-1 2.815-1.641 4.516-2.619l0.966-0.463 1.113 1.98-0.968 0.396C49.727 98.589 49.239 99 48.765 99h31.332c0 0 15.591-8.984 15.233-22.398-0.448-16.711-55.191-33.709-54.953-42.424C40.629 25.006 100 21.984 100 21.984V19.5c-1 0.032-2.707 0.109-5.276 0.248L93.473 19.808zM28.988 42.236l-0.646-0.91c-2.03-2.86-3.017-5.472-3.017-7.985 0-1.406 0.7-2.729 2.082-3.934l0.841-0.734 1.467 1.682-0.841 0.733c-0.874 0.762-1.316 1.52-1.316 2.252 0 2.006 0.876 4.258 2.605 6.694l0.646 0.91L28.988 42.236zM67.396 88.024c-2.809 2.599-6.474 4.67-9.985 6.57l-0.982 0.53-1.061-1.964 0.981-0.53c3.388-1.831 6.913-3.822 9.532-6.245l0.818-0.758 1.516 1.638L67.396 88.024zM66.639 68.916l0.845 0.729c3.519 3.043 5.088 5.313 5.088 7.36-0.022 1.326-0.192 2.546-0.503 3.689l-0.292 1.077-2.154-0.586 0.293-1.077c0.262-0.965 0.404-2 0.423-3.077 0.001-0.911-0.748-2.613-4.314-5.698l-0.844-0.729L66.639 68.916zM50.316 57.262l3.842 2.643c2.381 1.631 4.629 3.173 6.736 4.675l0.908 0.648-1.297 1.817-0.908-0.647c-2.09-1.491-4.33-3.026-6.701-4.652L49.05 59.1 50.316 57.262zM44.557 53.175l0.901 0.66-1.318 1.801-0.901-0.658c-3.781-2.765-6.799-5.194-9.227-7.426l-0.822-0.755 1.511-1.644 0.821 0.755C37.888 48.083 40.843 50.46 44.557 53.175zM47.013 24.865c-4.467 0.867-8.243 1.812-11.223 2.809l-1.059 0.354-0.708-2.116 1.059-0.354c3.072-1.028 6.943-1.998 11.506-2.884l1.095-0.212 0.425 2.191L47.013 24.865zM66.637 21.999c-4.145 0.461-8.042 0.964-11.582 1.495l-1.104 0.166-0.332-2.207 1.104-0.166c3.567-0.536 7.493-1.042 11.667-1.506l1.109-0.124 0.246 2.219L66.637 21.999zM86.441 20.248c-4 0.276-7.924 0.588-11.664 0.93l-1.111 0.102-0.202-2.223 1.111-0.102c3.756-0.343 7.696-0.657 11.713-0.934l1.112-0.077 0.154 2.227L86.441 20.248z" fill="#ffffff" data-fill-palette-color="background"></path></g></svg></g></svg></g></svg></g></svg></g></svg></g><defs></defs></svg><rect width="395.52" height="133.53293949455912" fill="none" stroke="none" visibility="hidden"></rect></g></svg></g></svg>