<svg xmlns="http://www.w3.org/2000/svg" version="1.1" xmlns:xlink="http://www.w3.org/1999/xlink" xmlns:svgjs="http://svgjs.dev/svgjs" width="1000" height="1000" viewBox="0 0 1000 1000"><rect width="1000" height="1000" fill="#ffffff"></rect><g transform="matrix(0.7,0,0,0.7,149.57575757575756,391.9178324041185)"><svg viewBox="0 0 396 123" data-background-color="#ffffff" preserveAspectRatio="xMidYMid meet" height="310" width="1000" xmlns="http://www.w3.org/2000/svg" xmlns:xlink="http://www.w3.org/1999/xlink"><g id="tight-bounds" transform="matrix(1,0,0,1,0.2400000000000091,-0.23683587883215296)"><svg viewBox="0 0 395.52 123.47367175766433" height="123.47367175766433" width="395.52"><g><svg viewBox="0 0 659.6150640556314 205.91902787625347" height="123.47367175766433" width="395.52"><g transform="matrix(1,0,0,1,262.11746405563144,47.429262256583776)"><svg viewBox="0 0 397.4975999999999 111.06050336308591" height="111.06050336308591" width="397.4975999999999"><g id="textblocktransform"><svg viewBox="0 0 397.4975999999999 111.06050336308591" height="111.06050336308591" width="397.4975999999999" id="textblock"><g><rect width="397.4975999999999" height="6.289227851651234" x="0" y="77.1488059827162" fill="#000000" opacity="1" stroke-width="0" stroke="transparent" fill-opacity="1" class="rect-r$-0" data-fill-palette-color="primary" rx="1%" id="r$-0" data-palette-color="#0718c4"></rect></g><g transform="matrix(1,0,0,1,0.9887999999999693,0)"><svg viewBox="0 0 395.52 69.74002971768202" height="69.74002971768202" width="395.52"><g transform="matrix(1,0,0,1,0,0)"><svg width="395.52" viewBox="2.25 -35 201.89 35.6" height="69.74002971768202" data-palette-color="#0718c4"><path d="M21-35Q25.95-35 29.9-33.5 33.85-32 36.18-29.08 38.5-26.15 38.5-21.95L38.5-21.95 27.95-21.95Q27.95-24.1 26.05-25.43 24.15-26.75 21.45-26.75L21.45-26.75Q17.55-26.75 15.55-24.68 13.55-22.6 13.55-18.8L13.55-18.8 13.55-15.6Q13.55-11.8 15.55-9.73 17.55-7.65 21.45-7.65L21.45-7.65Q24.15-7.65 26.05-8.93 27.95-10.2 27.95-12.2L27.95-12.2 20.15-12.2 20.15-19.2 38.5-19.2 38.5 0 32.8 0 31.7-3.4Q27 0.6 19.4 0.6L19.4 0.6Q10.85 0.6 6.55-3.88 2.25-8.35 2.25-17.2L2.25-17.2Q2.25-25.95 7.13-30.48 12-35 21-35L21-35ZM45.35 0L45.35-34.4 75.1-34.4 75.1-26.15 56.4-26.15 56.4-21.4 72.4-21.4 72.4-13.5 56.4-13.5 56.4-8.25 75.45-8.25 75.45 0 45.35 0ZM95.9-35Q102.5-35 106.75-32.33 111-29.65 111.09-24.4L111.09-24.4 111.09-23.8 100.75-23.8 100.75-24Q100.75-25.5 99.65-26.5 98.55-27.5 96.3-27.5L96.3-27.5Q94.09-27.5 92.92-26.85 91.75-26.2 91.75-25.25L91.75-25.25Q91.75-23.9 93.34-23.25 94.95-22.6 98.5-21.9L98.5-21.9Q102.65-21.05 105.32-20.13 108-19.2 110-17.1 112-15 112.05-11.4L112.05-11.4Q112.05-5.3 107.92-2.35 103.8 0.6 96.9 0.6L96.9 0.6Q88.84 0.6 84.37-2.1 79.9-4.8 79.9-11.65L79.9-11.65 90.34-11.65Q90.34-9.05 91.7-8.18 93.05-7.3 95.9-7.3L95.9-7.3Q98-7.3 99.37-7.75 100.75-8.2 100.75-9.6L100.75-9.6Q100.75-10.85 99.22-11.48 97.7-12.1 94.25-12.8L94.25-12.8Q90.05-13.7 87.3-14.68 84.55-15.65 82.5-17.9 80.45-20.15 80.45-24L80.45-24Q80.45-29.65 84.82-32.33 89.2-35 95.9-35L95.9-35ZM148.59-25.6L137.34-25.6 137.34 0 126.29 0 126.29-25.6 114.99-25.6 114.99-34.4 148.59-34.4 148.59-25.6ZM165.19 0L154.14 0 154.14-34.4 165.19-34.4 165.19 0ZM204.14-25.6L192.89-25.6 192.89 0 181.84 0 181.84-25.6 170.54-25.6 170.54-34.4 204.14-34.4 204.14-25.6Z" opacity="1" transform="matrix(1,0,0,1,0,0)" fill="#000000" class="wordmark-text-0" data-fill-palette-color="primary" id="text-0"></path></svg></g></svg></g><g transform="matrix(1,0,0,1,0,90.84681009940161)"><svg viewBox="0 0 375.74399999999997 20.213693263684302" height="20.213693263684302" width="375.74399999999997"><g transform="matrix(1,0,0,1,0,0)"><svg width="375.74399999999997" viewBox="4.3 -41.94 986.0600000000001 53.05" height="20.213693263684302" data-palette-color="#77d4fc"><path d="M29.42-36.06L28.44-32.28Q22.56-34.33 17.14-34.33L17.14-34.33Q11.55-34.33 9.86-29.74L9.86-29.74Q8.86-27.03 8.75-23.57 8.64-20.12 8.64-17.6L8.64-17.6 8.64-15.19Q8.64-7.4 11.25-4.86L11.25-4.86Q12.82-3.34 15.43-3.08L15.43-3.08Q16.65-2.93 17.94-2.93 19.24-2.93 20.45-3.06 21.66-3.2 22.75-3.42L22.75-3.42Q24.98-3.86 26.07-4.39L26.07-4.39 26.07-15.92 18.53-15.92 18.53-19.29 30.15-19.29 30.15-2.56Q27.86-0.83 22.02 0.15L22.02 0.15Q20 0.49 17.41 0.49 14.82 0.49 12.66-0.04 10.5-0.56 9-1.57 7.5-2.59 6.57-4.1 5.64-5.62 5.13-7.59L5.13-7.59Q4.3-10.91 4.3-15.78 4.3-20.65 4.47-23.47 4.64-26.29 5.14-28.58 5.64-30.86 6.54-32.59 7.45-34.33 8.91-35.5L8.91-35.5Q11.89-37.84 17.41-37.84L17.41-37.84Q23.71-37.84 28.17-36.45L28.17-36.45 29.42-36.06ZM39.06 0L39.06-37.35 60.23-37.35 60.23-33.74 43.21-33.74 43.21-20.85 56.93-20.85 56.93-17.26 43.21-17.26 43.21-3.59 60.89-3.59 60.89 0 39.06 0ZM64.55-2.47L66.16-5.88Q71.7-2.95 77-2.95L77-2.95Q83.15-2.95 84.2-6.88L84.2-6.88Q84.54-8.18 84.54-9.86L84.54-9.86 84.54-10.82Q84.54-12.52 84.3-13.57 84.05-14.62 83.27-15.28L83.27-15.28Q82-16.38 77.27-17.11L77.27-17.11Q73.04-17.77 71.43-18.36 69.82-18.95 68.78-19.64 67.74-20.34 67.01-21.39L67.01-21.39Q65.5-23.58 65.5-27.47L65.5-27.47 65.5-27.71Q65.5-35.77 72.19-37.35L72.19-37.35Q74.31-37.84 77-37.84L77-37.84 77.31-37.84Q83.59-37.84 87.57-36.04L87.57-36.04 86.3-32.3Q81.49-34.38 77.44-34.38L77.44-34.38 77.22-34.38Q72.75-34.38 71.06-32.69L71.06-32.69Q69.65-31.27 69.65-27.78L69.65-27.78 69.65-27.69Q69.65-23.71 71.85-22.46L71.85-22.46Q73.33-21.66 77.18-21.04 81.03-20.43 82.91-20.01 84.79-19.58 86.1-18.6L86.1-18.6Q88.84-16.55 88.84-10.82L88.84-10.82 88.84-10.5Q88.84-1.73 81.78-0.05L81.78-0.05Q79.61 0.49 77.68 0.49 75.75 0.49 74.18 0.35 72.6 0.22 70.97-0.12L70.97-0.12Q67.13-0.9 64.55-2.47L64.55-2.47ZM109.98-4.57L111.37-1.39Q107.39 0.49 104.02 0.49L104.02 0.49Q97.92 0.49 97.09-4.74L97.09-4.74Q96.89-5.98 96.89-8.35L96.89-8.35 96.89-25.66 93.38-25.66 93.38-28.66 96.89-29.05 97.53-35.69 100.92-35.69 100.92-29.05 109.39-29.05 109.39-25.66 100.92-25.66 100.92-8.42Q100.92-5.42 101.36-4.59L101.36-4.59Q102.17-3.08 104.58-3.08 107-3.08 109.98-4.57L109.98-4.57ZM120.82-36.01L120.82-36.01Q119.18-36.01 118.72-36.47L118.72-36.47Q117.98-37.23 117.98-38.56 117.98-39.89 118.14-40.47 118.3-41.04 118.62-41.36L118.62-41.36Q119.2-41.94 120.41-41.94 121.62-41.94 122.15-41.82 122.67-41.7 123.01-41.36L123.01-41.36Q123.6-40.77 123.6-39.44 123.6-38.11 123.46-37.54 123.33-36.96 123.01-36.62L123.01-36.62Q122.4-36.01 120.82-36.01ZM118.89 0L118.84-29.05 122.84-29.05 122.84 0 118.89 0ZM133.73-14.45L133.73-14.45Q133.73-20 134.29-22.19 134.85-24.39 135.67-25.67 136.49-26.95 137.88-27.81L137.88-27.81Q140.66-29.54 146.11-29.54L146.11-29.54Q153.97-29.54 156.21-25.66L156.21-25.66Q157.56-23.32 157.75-19.04L157.75-19.04Q157.82-17.02 157.82-14.58 157.82-12.13 157.67-10.02 157.51-7.91 157.04-6.23 156.58-4.54 155.75-3.28 154.92-2.03 153.55-1.17L153.55-1.17Q150.87 0.49 145.72 0.49L145.72 0.49Q138 0.49 135.58-3.32L135.58-3.32Q134.09-5.69 133.85-9.96L133.85-9.96Q133.73-12.01 133.73-14.45ZM140.37-4.27Q141.25-3.61 142.58-3.28 143.91-2.95 146.22-2.95 148.52-2.95 150.1-3.61 151.67-4.27 152.47-5.73 153.26-7.18 153.47-9.5 153.67-11.82 153.67-14.89 153.67-17.97 153.49-20.02 153.31-22.07 152.58-23.41L152.58-23.41Q151.11-26.05 146.06-26.05L146.06-26.05Q140.71-26.05 139.1-23.41L139.1-23.41Q138.29-22.07 138.07-20 137.85-17.92 137.85-15.48 137.85-13.04 137.91-11.34 137.98-9.64 138.23-8.29 138.49-6.93 138.99-5.93 139.49-4.93 140.37-4.27ZM181.6-25.73L181.6-25.73Q176.84-25.73 171.91-22.92L171.91-22.92 171.91 0 167.86 0 167.86-29.05 171.42-29.05 171.81-26.05Q174.47-28.22 178.43-29.15L178.43-29.15Q180.04-29.54 182.21-29.54 184.38-29.54 186.04-29.04 187.7-28.54 188.68-27.44L188.68-27.44Q190.46-25.46 190.46-20.24L190.46-20.24 190.46 0 186.36 0 186.36-19.48Q186.36-23 185.68-24.01 184.99-25.02 184.05-25.38 183.11-25.73 181.6-25.73ZM233.09 0.1L232.5-3.25Q227.35 0.49 222.03 0.49L222.03 0.49Q216.14 0.49 214.19-3.83L214.19-3.83Q213.07-6.27 212.93-9 212.8-11.72 212.8-13.78 212.8-15.84 212.83-17.94 212.87-20.04 213.14-21.83 213.41-23.61 213.98-25.04 214.56-26.46 215.63-27.47L215.63-27.47Q217.85-29.54 222.97-29.54 228.08-29.54 232.21-27.76L232.21-27.76 232.21-41.55 236.26-41.94 236.26-13.35Q236.26-4.93 236.72-0.2L236.72-0.2 233.09 0.1ZM232.18-13.55L232.21-24.41Q227.81-25.88 223.71-25.88L223.71-25.88Q220.73-25.88 219.78-25.39 218.83-24.9 218.33-24.12 217.83-23.34 217.51-21.97L217.51-21.97Q216.95-19.41 216.95-13.53L216.95-13.53 216.95-12.99Q216.95-7.5 218.14-5.4L218.14-5.4Q219.44-3.17 222.95-3.17L222.95-3.17 223.32-3.17Q226.69-3.17 230.5-5.32L230.5-5.32Q231.55-5.91 232.3-6.49L232.3-6.49 232.3-6.54Q232.18-8.81 232.18-13.55L232.18-13.55ZM268.48-5.03L269.68-1.54Q264.63 0.49 258.52 0.49L258.52 0.49Q254.98 0.49 252.52-0.24L252.52-0.24Q248.59-1.37 247.29-4.88L247.29-4.88Q246.1-8.18 246.1-14.65L246.1-14.65 246.1-15.89Q246.1-23.63 249.32-26.76L249.32-26.76Q252.22-29.54 259.01-29.54L259.01-29.54Q265.63-29.54 268.04-26.27L268.04-26.27Q269.22-24.68 269.59-22.42 269.97-20.17 269.97-18.12L269.97-18.12Q269.97-14.92 269.83-13.16L269.83-13.16Q266.38-13.01 263.65-13.01L263.65-13.01Q263.65-13.01 259.72-13.01L259.72-13.01Q253.57-13.01 250.25-13.55L250.25-13.55Q250.25-7.93 251.66-5.71L251.66-5.71Q253.4-3 258.57-3 263.75-3 268.48-5.03L268.48-5.03ZM250.25-16.41L265.85-16.41 265.85-18.75Q265.85-22.58 264.36-24.22L264.36-24.22Q262.7-26.05 258.62-26.05L258.62-26.05Q253.74-26.05 251.96-23.93L251.96-23.93Q250.25-21.9 250.25-16.41L250.25-16.41ZM297.51 0L297.51-33.74 287.55-33.74 287.55-37.35 311.96-37.35 311.96-33.74 301.66-33.74 301.66 0 297.51 0ZM328.12-25.51L328.12-25.51Q324.99-25.51 321.75-22.39L321.75-22.39 321.75 0 317.69 0 317.69-29.05 321.26-29.05 321.65-25.2Q322.8-26.98 324.13-27.98 325.46-28.98 326.31-29.2L326.31-29.2Q327.53-29.54 328.63-29.54 329.73-29.54 331.39-29.1L331.39-29.1 331.02-25.22Q329.78-25.51 328.12-25.51ZM360.78-19.41L360.78-10.3Q360.78-5.44 361.25-0.2L361.25-0.2 357.63 0.1 357.02-3.3Q353.92-0.81 348.82 0.17L348.82 0.17Q347.16 0.49 345.87 0.49 344.57 0.49 343.58 0.37 342.59 0.24 341.68-0.11 340.76-0.46 339.98-1.1 339.2-1.73 338.61-2.78L338.61-2.78Q337.37-5 337.37-8.12 337.37-11.23 337.82-12.95 338.27-14.67 339.32-15.82L339.32-15.82Q341.4-18.09 346.31-18.09 351.21-18.09 356.78-16.24L356.78-16.24 356.78-19.41Q356.78-24.71 352.41-25.68L352.41-25.68Q350.99-26 349.16-26L349.16-26Q344.99-26 340.49-24.34L340.49-24.34 339.59-27.86Q340.84-28.69 345.94-29.35L345.94-29.35Q347.55-29.54 349.81-29.54 352.07-29.54 354.24-29 356.41-28.47 357.85-27.25L357.85-27.25Q360.78-24.83 360.78-19.41L360.78-19.41ZM356.68-13.18L356.68-13.18Q350.97-14.62 346.13-14.62L346.13-14.62Q343.16-14.62 342.18-12.92L342.18-12.92Q341.52-11.72 341.52-9.38 341.52-7.03 341.78-5.98 342.03-4.93 342.62-4.25L342.62-4.25Q343.77-2.95 346.4-2.95L346.4-2.95Q350.53-2.95 354.58-5.08L354.58-5.08Q355.83-5.71 356.83-6.49L356.83-6.49Q356.68-9.13 356.68-13.18ZM385.59-25.73L385.59-25.73Q380.82-25.73 375.89-22.92L375.89-22.92 375.89 0 371.84 0 371.84-29.05 375.4-29.05 375.8-26.05Q378.46-28.22 382.41-29.15L382.41-29.15Q384.02-29.54 386.2-29.54 388.37-29.54 390.03-29.04 391.69-28.54 392.67-27.44L392.67-27.44Q394.45-25.46 394.45-20.24L394.45-20.24 394.45 0 390.35 0 390.35-19.48Q390.35-23 389.66-24.01 388.98-25.02 388.04-25.38 387.1-25.73 385.59-25.73ZM403.43-2.39L405.19-5.76Q410.22-2.95 415.29-2.95L415.29-2.95Q419.52-2.95 420.25-5.96L420.25-5.96Q420.49-6.98 420.49-8.46 420.49-9.94 420.15-10.75 419.81-11.57 419.01-11.98 418.2-12.38 416.87-12.57 415.54-12.77 413.49-13.12 411.44-13.48 409.73-13.92 408.02-14.36 406.82-15.19L406.82-15.19Q404.28-16.97 404.38-21.19L404.38-21.19 404.38-21.8Q404.38-26.25 407.31-28.13L407.31-28.13Q410.14-29.98 416.66-29.39L416.66-29.39Q421.11-28.98 423.74-27.86L423.74-27.86 422.59-24.17Q419.66-25.42 415.56-25.98L415.56-25.98Q414.29-26.15 413.18-26.15 412.07-26.15 411.17-25.98 410.27-25.81 409.65-25.34L409.65-25.34Q408.48-24.39 408.43-21.8L408.43-21.8Q408.36-18.75 410.14-17.92L410.14-17.92Q411.85-17.11 414.2-16.81 416.54-16.5 418.03-16.27 419.52-16.04 420.74-15.65 421.96-15.26 422.84-14.4L422.84-14.4Q424.67-12.67 424.62-8.37L424.62-8.37Q424.5-0.88 418.37 0.17L418.37 0.17Q416.52 0.49 414.66 0.49 412.8 0.49 411.25 0.26 409.7 0.02 408.29-0.39L408.29-0.39Q405.6-1.15 403.43-2.39L403.43-2.39ZM438.19-1.73L438.19-1.73 438.19 11.11 434.14 11.11 434.14-29.05 437.44-29.05 437.9-26.05Q440.76-28.2 445.35-29.2L445.35-29.2Q447.01-29.54 448.96-29.54 450.91-29.54 452.41-29.03 453.92-28.52 454.89-27.6 455.87-26.68 456.41-25.42 456.94-24.15 457.21-22.66L457.21-22.66Q457.55-20.61 457.55-16.11L457.55-16.11 457.55-15.55Q457.55-9.84 457.16-7.64 456.77-5.44 456.14-4.02 455.5-2.59 454.38-1.59L454.38-1.59Q452.06 0.49 447.2 0.49 442.34 0.49 438.19-1.73ZM438.19-22.92L438.19-5.08Q442.34-3.17 446.91-3.17L446.91-3.17Q449.89-3.17 451.25-4.27L451.25-4.27Q453.11-5.79 453.33-11.33L453.33-11.33Q453.4-13.16 453.4-15.53L453.4-15.53 453.4-16.06Q453.4-21.68 452.43-23.58L452.43-23.58Q451.33-25.76 447.88-25.76L447.88-25.76 447.52-25.76Q443.93-25.76 440.07-23.97L440.07-23.97Q438.95-23.46 438.19-22.92L438.19-22.92ZM466.73-14.45L466.73-14.45Q466.73-20 467.29-22.19 467.85-24.39 468.67-25.67 469.49-26.95 470.88-27.81L470.88-27.81Q473.66-29.54 479.11-29.54L479.11-29.54Q486.97-29.54 489.22-25.66L489.22-25.66Q490.56-23.32 490.75-19.04L490.75-19.04Q490.83-17.02 490.83-14.58 490.83-12.13 490.67-10.02 490.51-7.91 490.05-6.23 489.58-4.54 488.75-3.28 487.92-2.03 486.55-1.17L486.55-1.17Q483.87 0.49 478.72 0.49L478.72 0.49Q471 0.49 468.59-3.32L468.59-3.32Q467.1-5.69 466.85-9.96L466.85-9.96Q466.73-12.01 466.73-14.45ZM473.37-4.27Q474.25-3.61 475.58-3.28 476.91-2.95 479.22-2.95 481.52-2.95 483.1-3.61 484.67-4.27 485.47-5.73 486.26-7.18 486.47-9.5 486.68-11.82 486.68-14.89 486.68-17.97 486.49-20.02 486.31-22.07 485.58-23.41L485.58-23.41Q484.11-26.05 479.06-26.05L479.06-26.05Q473.71-26.05 472.1-23.41L472.1-23.41Q471.3-22.07 471.08-20 470.86-17.92 470.86-15.48 470.86-13.04 470.92-11.34 470.98-9.64 471.23-8.29 471.49-6.93 471.99-5.93 472.49-4.93 473.37-4.27ZM511.28-25.51L511.28-25.51Q508.16-25.51 504.91-22.39L504.91-22.39 504.91 0 500.86 0 500.86-29.05 504.42-29.05 504.81-25.2Q505.96-26.98 507.29-27.98 508.62-28.98 509.48-29.2L509.48-29.2Q510.7-29.54 511.8-29.54 512.89-29.54 514.55-29.1L514.55-29.1 514.19-25.22Q512.94-25.51 511.28-25.51ZM534.62-4.57L536.01-1.39Q532.03 0.49 528.66 0.49L528.66 0.49Q522.56 0.49 521.73-4.74L521.73-4.74Q521.53-5.98 521.53-8.35L521.53-8.35 521.53-25.66 518.02-25.66 518.02-28.66 521.53-29.05 522.17-35.69 525.56-35.69 525.56-29.05 534.03-29.05 534.03-25.66 525.56-25.66 525.56-8.42Q525.56-5.42 526-4.59L526-4.59Q526.81-3.08 529.22-3.08 531.64-3.08 534.62-4.57L534.62-4.57ZM540.84-2.39L542.6-5.76Q547.63-2.95 552.71-2.95L552.71-2.95Q556.93-2.95 557.66-5.96L557.66-5.96Q557.91-6.98 557.91-8.46 557.91-9.94 557.57-10.75 557.23-11.57 556.42-11.98 555.61-12.38 554.28-12.57 552.95-12.77 550.9-13.12 548.85-13.48 547.14-13.92 545.43-14.36 544.24-15.19L544.24-15.19Q541.7-16.97 541.8-21.19L541.8-21.19 541.8-21.8Q541.8-26.25 544.73-28.13L544.73-28.13Q547.56-29.98 554.08-29.39L554.08-29.39Q558.52-28.98 561.16-27.86L561.16-27.86 560.01-24.17Q557.08-25.42 552.98-25.98L552.98-25.98Q551.71-26.15 550.6-26.15 549.49-26.15 548.58-25.98 547.68-25.81 547.07-25.34L547.07-25.34Q545.9-24.39 545.85-21.8L545.85-21.8Q545.78-18.75 547.56-17.92L547.56-17.92Q549.27-17.11 551.61-16.81 553.95-16.5 555.44-16.27 556.93-16.04 558.15-15.65 559.37-15.26 560.25-14.4L560.25-14.4Q562.08-12.67 562.03-8.37L562.03-8.37Q561.91-0.88 555.78 0.17L555.78 0.17Q553.93 0.49 552.07 0.49 550.22 0.49 548.67 0.26 547.12 0.02 545.7-0.39L545.7-0.39Q543.02-1.15 540.84-2.39L540.84-2.39ZM585 0L585-37.35 589.13-37.35 589.13 0 585 0ZM614.59-25.73L614.59-25.73Q609.83-25.73 604.9-22.92L604.9-22.92 604.9 0 600.85 0 600.85-29.05 604.41-29.05 604.8-26.05Q607.46-28.22 611.42-29.15L611.42-29.15Q613.03-29.54 615.2-29.54 617.37-29.54 619.03-29.04 620.69-28.54 621.67-27.44L621.67-27.44Q623.45-25.46 623.45-20.24L623.45-20.24 623.45 0 619.35 0 619.35-19.48Q619.35-23 618.67-24.01 617.98-25.02 617.04-25.38 616.1-25.73 614.59-25.73ZM647.06-4.57L648.45-1.39Q644.47 0.49 641.1 0.49L641.1 0.49Q635 0.49 634.17-4.74L634.17-4.74Q633.97-5.98 633.97-8.35L633.97-8.35 633.97-25.66 630.46-25.66 630.46-28.66 633.97-29.05 634.61-35.69 638-35.69 638-29.05 646.47-29.05 646.47-25.66 638-25.66 638-8.42Q638-5.42 638.44-4.59L638.44-4.59Q639.25-3.08 641.66-3.08 644.08-3.08 647.06-4.57L647.06-4.57ZM665.42-25.51L665.42-25.51Q662.29-25.51 659.04-22.39L659.04-22.39 659.04 0 654.99 0 654.99-29.05 658.56-29.05 658.95-25.2Q660.09-26.98 661.42-27.98 662.75-28.98 663.61-29.2L663.61-29.2Q664.83-29.54 665.93-29.54 667.03-29.54 668.69-29.1L668.69-29.1 668.32-25.22Q667.08-25.51 665.42-25.51ZM698.08-19.41L698.08-10.3Q698.08-5.44 698.54-0.2L698.54-0.2 694.93 0.1 694.32-3.3Q691.22-0.81 686.12 0.17L686.12 0.17Q684.46 0.49 683.16 0.49 681.87 0.49 680.88 0.37 679.89 0.24 678.98-0.11 678.06-0.46 677.28-1.1 676.5-1.73 675.91-2.78L675.91-2.78Q674.67-5 674.67-8.12 674.67-11.23 675.12-12.95 675.57-14.67 676.62-15.82L676.62-15.82Q678.69-18.09 683.6-18.09 688.51-18.09 694.08-16.24L694.08-16.24 694.08-19.41Q694.08-24.71 689.71-25.68L689.71-25.68Q688.29-26 686.46-26L686.46-26Q682.28-26 677.79-24.34L677.79-24.34 676.89-27.86Q678.13-28.69 683.24-29.35L683.24-29.35Q684.85-29.54 687.11-29.54 689.36-29.54 691.54-29 693.71-28.47 695.15-27.25L695.15-27.25Q698.08-24.83 698.08-19.41L698.08-19.41ZM693.98-13.18L693.98-13.18Q688.27-14.62 683.43-14.62L683.43-14.62Q680.45-14.62 679.48-12.92L679.48-12.92Q678.82-11.72 678.82-9.38 678.82-7.03 679.07-5.98 679.33-4.93 679.92-4.25L679.92-4.25Q681.06-2.95 683.7-2.95L683.7-2.95Q687.83-2.95 691.88-5.08L691.88-5.08Q693.12-5.71 694.12-6.49L694.12-6.49Q693.98-9.13 693.98-13.18ZM743.17-5.03L744.36-1.54Q739.31 0.49 733.21 0.49L733.21 0.49Q729.67 0.49 727.2-0.24L727.2-0.24Q723.27-1.37 721.98-4.88L721.98-4.88Q720.78-8.18 720.78-14.65L720.78-14.65 720.78-15.89Q720.78-23.63 724-26.76L724-26.76Q726.91-29.54 733.69-29.54L733.69-29.54Q740.31-29.54 742.73-26.27L742.73-26.27Q743.9-24.68 744.28-22.42 744.66-20.17 744.66-18.12L744.66-18.12Q744.66-14.92 744.51-13.16L744.51-13.16Q741.07-13.01 738.33-13.01L738.33-13.01Q738.33-13.01 734.4-13.01L734.4-13.01Q728.25-13.01 724.93-13.55L724.93-13.55Q724.93-7.93 726.35-5.71L726.35-5.71Q728.08-3 733.26-3 738.43-3 743.17-5.03L743.17-5.03ZM724.93-16.41L740.53-16.41 740.53-18.75Q740.53-22.58 739.04-24.22L739.04-24.22Q737.38-26.05 733.3-26.05L733.3-26.05Q728.42-26.05 726.64-23.93L726.64-23.93Q724.93-21.9 724.93-16.41L724.93-16.41ZM768.65-25.73L768.65-25.73Q763.89-25.73 758.96-22.92L758.96-22.92 758.96 0 754.91 0 754.91-29.05 758.47-29.05 758.86-26.05Q761.52-28.22 765.48-29.15L765.48-29.15Q767.09-29.54 769.26-29.54 771.44-29.54 773.1-29.04 774.76-28.54 775.73-27.44L775.73-27.44Q777.52-25.46 777.52-20.24L777.52-20.24 777.52 0 773.41 0 773.41-19.48Q773.41-23 772.73-24.01 772.05-25.02 771.11-25.38 770.17-25.73 768.65-25.73ZM793.02 0L793.02-33.74 783.05-33.74 783.05-37.35 807.47-37.35 807.47-33.74 797.17-33.74 797.17 0 793.02 0ZM823.63-25.51L823.63-25.51Q820.5-25.51 817.26-22.39L817.26-22.39 817.26 0 813.2 0 813.2-29.05 816.77-29.05 817.16-25.2Q818.31-26.98 819.64-27.98 820.97-28.98 821.82-29.2L821.82-29.2Q823.04-29.54 824.14-29.54 825.24-29.54 826.9-29.1L826.9-29.1 826.53-25.22Q825.29-25.51 823.63-25.51ZM855.61-5.03L856.8-1.54Q851.75 0.49 845.65 0.49L845.65 0.49Q842.11 0.49 839.64-0.24L839.64-0.24Q835.71-1.37 834.42-4.88L834.42-4.88Q833.22-8.18 833.22-14.65L833.22-14.65 833.22-15.89Q833.22-23.63 836.44-26.76L836.44-26.76Q839.35-29.54 846.14-29.54L846.14-29.54Q852.75-29.54 855.17-26.27L855.17-26.27Q856.34-24.68 856.72-22.42 857.1-20.17 857.1-18.12L857.1-18.12Q857.1-14.92 856.95-13.16L856.95-13.16Q853.51-13.01 850.77-13.01L850.77-13.01Q850.77-13.01 846.84-13.01L846.84-13.01Q840.69-13.01 837.37-13.55L837.37-13.55Q837.37-7.93 838.79-5.71L838.79-5.71Q840.52-3 845.7-3 850.87-3 855.61-5.03L855.61-5.03ZM837.37-16.41L852.97-16.41 852.97-18.75Q852.97-22.58 851.48-24.22L851.48-24.22Q849.82-26.05 845.75-26.05L845.75-26.05Q840.86-26.05 839.08-23.93L839.08-23.93Q837.37-21.9 837.37-16.41L837.37-16.41ZM871.26-1.73L871.26-1.73 871.26 11.11 867.2 11.11 867.2-29.05 870.5-29.05 870.96-26.05Q873.82-28.2 878.41-29.2L878.41-29.2Q880.07-29.54 882.02-29.54 883.98-29.54 885.48-29.03 886.98-28.52 887.95-27.6 888.93-26.68 889.47-25.42 890.01-24.15 890.27-22.66L890.27-22.66Q890.62-20.61 890.62-16.11L890.62-16.11 890.62-15.55Q890.62-9.84 890.23-7.64 889.83-5.44 889.2-4.02 888.56-2.59 887.44-1.59L887.44-1.59Q885.12 0.49 880.26 0.49 875.41 0.49 871.26-1.73ZM871.26-22.92L871.26-5.08Q875.41-3.17 879.97-3.17L879.97-3.17Q882.95-3.17 884.32-4.27L884.32-4.27Q886.17-5.79 886.39-11.33L886.39-11.33Q886.47-13.16 886.47-15.53L886.47-15.53 886.47-16.06Q886.47-21.68 885.49-23.58L885.49-23.58Q884.39-25.76 880.95-25.76L880.95-25.76 880.58-25.76Q876.99-25.76 873.14-23.97L873.14-23.97Q872.01-23.46 871.26-22.92L871.26-22.92ZM911.07-25.51L911.07-25.51Q907.95-25.51 904.7-22.39L904.7-22.39 904.7 0 900.65 0 900.65-29.05 904.21-29.05 904.6-25.2Q905.75-26.98 907.08-27.98 908.41-28.98 909.27-29.2L909.27-29.2Q910.49-29.54 911.58-29.54 912.68-29.54 914.34-29.1L914.34-29.1 913.98-25.22Q912.73-25.51 911.07-25.51ZM924.4-36.01L924.4-36.01Q922.76-36.01 922.3-36.47L922.3-36.47Q921.57-37.23 921.57-38.56 921.57-39.89 921.73-40.47 921.89-41.04 922.2-41.36L922.2-41.36Q922.79-41.94 924-41.94 925.21-41.94 925.73-41.82 926.26-41.7 926.6-41.36L926.6-41.36Q927.18-40.77 927.18-39.44 927.18-38.11 927.05-37.54 926.91-36.96 926.6-36.62L926.6-36.62Q925.99-36.01 924.4-36.01ZM922.47 0L922.42-29.05 926.43-29.05 926.43 0 922.47 0ZM936.46-2.39L938.22-5.76Q943.24-2.95 948.32-2.95L948.32-2.95Q952.55-2.95 953.28-5.96L953.28-5.96Q953.52-6.98 953.52-8.46 953.52-9.94 953.18-10.75 952.84-11.57 952.03-11.98 951.23-12.38 949.9-12.57 948.57-12.77 946.52-13.12 944.47-13.48 942.76-13.92 941.05-14.36 939.85-15.19L939.85-15.19Q937.31-16.97 937.41-21.19L937.41-21.19 937.41-21.8Q937.41-26.25 940.34-28.13L940.34-28.13Q943.17-29.98 949.69-29.39L949.69-29.39Q954.13-28.98 956.77-27.86L956.77-27.86 955.62-24.17Q952.69-25.42 948.59-25.98L948.59-25.98Q947.32-26.15 946.21-26.15 945.1-26.15 944.2-25.98 943.29-25.81 942.68-25.34L942.68-25.34Q941.51-24.39 941.46-21.8L941.46-21.8Q941.39-18.75 943.17-17.92L943.17-17.92Q944.88-17.11 947.22-16.81 949.57-16.5 951.06-16.27 952.55-16.04 953.77-15.65 954.99-15.26 955.87-14.4L955.87-14.4Q957.7-12.67 957.65-8.37L957.65-8.37Q957.53-0.88 951.4 0.17L951.4 0.17Q949.54 0.49 947.69 0.49 945.83 0.49 944.28 0.26 942.73 0.02 941.32-0.39L941.32-0.39Q938.63-1.15 936.46-2.39L936.46-2.39ZM988.87-5.03L990.07-1.54Q985.01 0.49 978.91 0.49L978.91 0.49Q975.37 0.49 972.91-0.24L972.91-0.24Q968.97-1.37 967.68-4.88L967.68-4.88Q966.48-8.18 966.48-14.65L966.48-14.65 966.48-15.89Q966.48-23.63 969.71-26.76L969.71-26.76Q972.61-29.54 979.4-29.54L979.4-29.54Q986.02-29.54 988.43-26.27L988.43-26.27Q989.6-24.68 989.98-22.42 990.36-20.17 990.36-18.12L990.36-18.12Q990.36-14.92 990.22-13.16L990.22-13.16Q986.77-13.01 984.04-13.01L984.04-13.01Q984.04-13.01 980.11-13.01L980.11-13.01Q973.96-13.01 970.64-13.55L970.64-13.55Q970.64-7.93 972.05-5.71L972.05-5.71Q973.78-3 978.96-3 984.14-3 988.87-5.03L988.87-5.03ZM970.64-16.41L986.24-16.41 986.24-18.75Q986.24-22.58 984.75-24.22L984.75-24.22Q983.09-26.05 979.01-26.05L979.01-26.05Q974.13-26.05 972.34-23.93L972.34-23.93Q970.64-21.9 970.64-16.41L970.64-16.41Z" opacity="1" transform="matrix(1,0,0,1,0,0)" fill="#000000" class="slogan-text-1" data-fill-palette-color="secondary" id="text-1"></path></svg></g></svg></g></svg></g></svg></g><g><svg viewBox="0 0 245.65351679999995 205.91902787625347" height="205.91902787625347" width="245.65351679999995"><g><svg xmlns="http://www.w3.org/2000/svg" xmlns:xlink="http://www.w3.org/1999/xlink" version="1.1" x="0" y="0" viewBox="0.099 15.258 99.901 83.742" enable-background="new 0 0 100 100" xml:space="preserve" height="205.91902787625347" width="245.65351679999995" class="icon-icon-0" data-fill-palette-color="accent" id="icon-0"><g fill="#24a8df" data-fill-palette-color="accent"><path d="M93.473 19.808l-0.121-2.229 1.252-0.06C97.301 17.374 99 17.294 100 17.266v-2.008c0 0-87.968 3.084-87.968 18.785 0 15.699 33.588 33.737 33.433 42.737C45.249 89.027 11.313 95 0.099 99h44.515c1.339-1 2.815-1.641 4.516-2.619l0.966-0.463 1.113 1.98-0.968 0.396C49.727 98.589 49.239 99 48.765 99h31.332c0 0 15.591-8.984 15.233-22.398-0.448-16.711-55.191-33.709-54.953-42.424C40.629 25.006 100 21.984 100 21.984V19.5c-1 0.032-2.707 0.109-5.276 0.248L93.473 19.808zM28.988 42.236l-0.646-0.91c-2.03-2.86-3.017-5.472-3.017-7.985 0-1.406 0.7-2.729 2.082-3.934l0.841-0.734 1.467 1.682-0.841 0.733c-0.874 0.762-1.316 1.52-1.316 2.252 0 2.006 0.876 4.258 2.605 6.694l0.646 0.91L28.988 42.236zM67.396 88.024c-2.809 2.599-6.474 4.67-9.985 6.57l-0.982 0.53-1.061-1.964 0.981-0.53c3.388-1.831 6.913-3.822 9.532-6.245l0.818-0.758 1.516 1.638L67.396 88.024zM66.639 68.916l0.845 0.729c3.519 3.043 5.088 5.313 5.088 7.36-0.022 1.326-0.192 2.546-0.503 3.689l-0.292 1.077-2.154-0.586 0.293-1.077c0.262-0.965 0.404-2 0.423-3.077 0.001-0.911-0.748-2.613-4.314-5.698l-0.844-0.729L66.639 68.916zM50.316 57.262l3.842 2.643c2.381 1.631 4.629 3.173 6.736 4.675l0.908 0.648-1.297 1.817-0.908-0.647c-2.09-1.491-4.33-3.026-6.701-4.652L49.05 59.1 50.316 57.262zM44.557 53.175l0.901 0.66-1.318 1.801-0.901-0.658c-3.781-2.765-6.799-5.194-9.227-7.426l-0.822-0.755 1.511-1.644 0.821 0.755C37.888 48.083 40.843 50.46 44.557 53.175zM47.013 24.865c-4.467 0.867-8.243 1.812-11.223 2.809l-1.059 0.354-0.708-2.116 1.059-0.354c3.072-1.028 6.943-1.998 11.506-2.884l1.095-0.212 0.425 2.191L47.013 24.865zM66.637 21.999c-4.145 0.461-8.042 0.964-11.582 1.495l-1.104 0.166-0.332-2.207 1.104-0.166c3.567-0.536 7.493-1.042 11.667-1.506l1.109-0.124 0.246 2.219L66.637 21.999zM86.441 20.248c-4 0.276-7.924 0.588-11.664 0.93l-1.111 0.102-0.202-2.223 1.111-0.102c3.756-0.343 7.696-0.657 11.713-0.934l1.112-0.077 0.154 2.227L86.441 20.248z" fill="#000000" data-fill-palette-color="accent"></path></g></svg></g></svg></g></svg></g><defs></defs></svg><rect width="395.52" height="123.47367175766433" fill="none" stroke="none" visibility="hidden"></rect></g></svg></g></svg>